<svg width="35" height="34" viewBox="0 0 35 34" fill="none" xmlns="http://www.w3.org/2000/svg">
<g id="Group">
<path id="Vector" fill-rule="evenodd" clip-rule="evenodd" d="M8.57843 14.6663L10.9768 16.6663C14.0368 19.2163 15.5684 20.4913 17.3768 20.4913C19.1884 20.4913 20.7184 19.2163 23.7801 16.6647L26.1801 14.6647C26.7684 14.1747 27.0634 13.928 27.2201 13.593C27.3784 13.2563 27.3784 12.873 27.3784 12.1047V8.66634C27.3784 8.13301 27.3784 7.63301 27.3751 7.16968C27.3551 4.21801 27.2118 2.60801 26.1584 1.55301C24.9368 0.333008 22.9734 0.333008 19.0451 0.333008H15.7118C11.7834 0.333008 9.81843 0.333008 8.59843 1.55301C7.54343 2.60801 7.39843 4.21801 7.37843 7.16968C7.3751 7.63468 7.37843 8.13134 7.37843 8.66634V12.1047C7.37843 12.8713 7.37843 13.2563 7.5351 13.593C7.69343 13.928 7.9901 14.1747 8.57843 14.6663ZM12.7951 6.99967C12.7951 6.66815 12.9268 6.35021 13.1612 6.11579C13.3956 5.88137 13.7136 5.74967 14.0451 5.74967H20.7118C21.0433 5.74967 21.3612 5.88137 21.5957 6.11579C21.8301 6.35021 21.9618 6.66815 21.9618 6.99967C21.9618 7.3312 21.8301 7.64914 21.5957 7.88356C21.3612 8.11798 21.0433 8.24967 20.7118 8.24967H14.0451C13.7136 8.24967 13.3956 8.11798 13.1612 7.88356C12.9268 7.64914 12.7951 7.3312 12.7951 6.99967ZM14.4618 11.9997C14.4618 11.6682 14.5935 11.3502 14.8279 11.1158C15.0623 10.8814 15.3802 10.7497 15.7118 10.7497H19.0451C19.3766 10.7497 19.6946 10.8814 19.929 11.1158C20.1634 11.3502 20.2951 11.6682 20.2951 11.9997C20.2951 12.3312 20.1634 12.6491 19.929 12.8836C19.6946 13.118 19.3766 13.2497 19.0451 13.2497H15.7118C15.3802 13.2497 15.0623 13.118 14.8279 12.8836C14.5935 12.6491 14.4618 12.3312 14.4618 11.9997Z" fill="#E7B055"/>
<path id="Vector_2" opacity="0.5" d="M10.9759 16.6666L8.57594 14.6666C7.9876 14.1749 7.6926 13.9299 7.53427 13.5933C7.3776 13.2566 7.3776 12.8733 7.3776 12.1066V7.16992C5.21094 7.38326 3.7526 7.86492 2.66427 8.95325C0.710937 10.9049 0.710938 14.0499 0.710938 20.3366C0.710938 26.6199 0.710937 29.7633 2.66427 31.7149C4.61594 33.6683 7.75927 33.6683 14.0443 33.6683H20.7109C26.9959 33.6683 30.1393 33.6683 32.0909 31.7149C34.0443 29.7649 34.0443 26.6216 34.0443 20.3366C34.0443 14.0516 34.0443 10.9066 32.0909 8.95325C31.0026 7.86492 29.5426 7.38326 27.3743 7.16992C27.3776 7.63659 27.3776 8.13492 27.3776 8.66992V12.1083C27.3776 12.8749 27.3776 13.2583 27.2193 13.5949C27.0626 13.9316 26.7693 14.1783 26.1776 14.6683L23.7776 16.6683C20.7176 19.2183 19.1876 20.4933 17.3776 20.4933C15.5676 20.4933 14.0359 19.2183 10.9759 16.6666Z" fill="#E7B055"/>
</g>
</svg>
