<svg width="31" height="35" viewBox="0 0 31 35" fill="none" xmlns="http://www.w3.org/2000/svg">
<path opacity="0.5" d="M0.304688 14.1041C0.304688 7.81915 0.304687 4.67581 2.25802 2.72415C4.20969 0.770813 7.35302 0.770813 13.638 0.770813H16.9714C23.2564 0.770813 26.3997 0.770813 28.3514 2.72415C30.3047 4.67581 30.3047 7.81915 30.3047 14.1041V20.7708C30.3047 27.0558 30.3047 30.1991 28.3514 32.1508C26.3997 34.1041 23.2564 34.1041 16.9714 34.1041H13.638C7.35302 34.1041 4.20969 34.1041 2.25802 32.1508C0.304687 30.1991 0.304688 27.0558 0.304688 20.7708V14.1041Z" fill="#E7B055"/>
<path fill-rule="evenodd" clip-rule="evenodd" d="M7.38672 17.4375C7.38672 17.106 7.51841 16.788 7.75284 16.5536C7.98726 16.3192 8.3052 16.1875 8.63672 16.1875H21.9701C22.3016 16.1875 22.6195 16.3192 22.8539 16.5536C23.0884 16.788 23.2201 17.106 23.2201 17.4375C23.2201 17.769 23.0884 18.0869 22.8539 18.3214C22.6195 18.5558 22.3016 18.6875 21.9701 18.6875H8.63672C8.3052 18.6875 7.98726 18.5558 7.75284 18.3214C7.51841 18.0869 7.38672 17.769 7.38672 17.4375ZM7.38672 10.7708C7.38672 10.4393 7.51841 10.1213 7.75284 9.88693C7.98726 9.65251 8.3052 9.52081 8.63672 9.52081H21.9701C22.3016 9.52081 22.6195 9.65251 22.8539 9.88693C23.0884 10.1213 23.2201 10.4393 23.2201 10.7708C23.2201 11.1023 23.0884 11.4203 22.8539 11.6547C22.6195 11.8891 22.3016 12.0208 21.9701 12.0208H8.63672C8.3052 12.0208 7.98726 11.8891 7.75284 11.6547C7.51841 11.4203 7.38672 11.1023 7.38672 10.7708ZM7.38672 24.1041C7.38672 23.7726 7.51841 23.4547 7.75284 23.2203C7.98726 22.9858 8.3052 22.8541 8.63672 22.8541H16.9701C17.3016 22.8541 17.6195 22.9858 17.8539 23.2203C18.0884 23.4547 18.2201 23.7726 18.2201 24.1041C18.2201 24.4357 18.0884 24.7536 17.8539 24.988C17.6195 25.2225 17.3016 25.3541 16.9701 25.3541H8.63672C8.3052 25.3541 7.98726 25.2225 7.75284 24.988C7.51841 24.7536 7.38672 24.4357 7.38672 24.1041Z" fill="#E7B055"/>
</svg>
