<svg width="129" height="32" viewBox="0 0 129 32" fill="none" xmlns="http://www.w3.org/2000/svg">
<path fill-rule="evenodd" clip-rule="evenodd" d="M19.3881 13.3353L21.1645 15.1117L27.382 8.89427C28.3631 7.91318 28.3631 6.32252 27.382 5.34144L24.7174 2.67681L22.941 0.900391L21.1645 2.67681L19.3881 4.45323L21.1645 6.22964L22.4968 4.89733C22.7421 4.65206 23.1398 4.65206 23.3851 4.89733L25.6056 7.11785L19.3881 13.3353ZM22.0528 8.89432L20.2764 10.6707L14.059 4.45333L11.8385 6.67385C11.5932 6.91913 11.5932 7.31679 11.8385 7.56206L13.1708 8.89438L11.3944 10.6708L9.61793 8.89437C8.63684 7.91329 8.63684 6.32263 9.61793 5.34154L12.2826 2.67691L14.059 0.900495L15.8354 2.67691L22.0528 8.89432ZM15.8354 8.00613L17.6118 9.78255L12.2826 15.1118L10.5061 13.3354L15.8354 8.00613ZM21.1645 16.8881L19.3881 18.6645L14.9471 14.2235L16.7235 12.4471L21.1645 16.8881ZM19.3883 22.2175L21.1647 23.9939L26.4939 18.6646L24.7175 16.8882L19.3883 22.2175ZM14.9473 23.1057L16.7237 21.3293L22.9412 27.5467L25.1617 25.3262C25.407 25.0809 25.407 24.6833 25.1617 24.438L23.8294 23.1057L25.6058 21.3293L27.3822 23.1057C28.3633 24.0868 28.3633 25.6774 27.3822 26.6585L24.7176 29.3231L22.9412 31.0996L21.1647 29.3231L14.9473 23.1057ZM25.6058 12.4472L23.8293 14.2236L30.0468 20.4411L31.8232 22.2175L33.5996 20.4411L36.2643 17.7765C37.2453 16.7954 37.2454 15.2047 36.2643 14.2236L31.8232 9.78258L28.2704 13.3354L30.0468 15.1118L31.8232 13.3354L34.0437 15.5559C34.289 15.8012 34.289 16.1989 34.0437 16.4441L31.8232 18.6647L25.6058 12.4472ZM13.1707 17.7764L11.3943 19.5528L5.17686 13.3353L2.95634 15.5559C2.71107 15.8011 2.71107 16.1988 2.95634 16.4441L5.17686 18.6646L6.95328 16.8882L8.7297 18.6646L5.17686 22.2174L0.735816 17.7764C-0.245272 16.7953 -0.245272 15.2046 0.735817 14.2235L3.40044 11.5589L5.17686 9.7825L6.95328 11.5589L13.1707 17.7764ZM17.6118 18.6646L15.8354 16.8882L9.61793 23.1057C8.63684 24.0867 8.63684 25.6774 9.61793 26.6585L12.2826 29.3231L14.059 31.0995L15.8354 29.3231L17.6118 27.5467L15.8354 25.7703L14.5031 27.1026C14.2578 27.3479 13.8601 27.3479 13.6149 27.1026L11.3943 24.8821L17.6118 18.6646Z" fill="url(#paint0_linear_1097_58139)"/>
<path d="M53.144 21.892C53.672 21.892 54.136 21.884 54.536 21.868C54.952 21.836 55.296 21.788 55.568 21.724V18.004C55.408 17.924 55.144 17.86 54.776 17.812C54.424 17.748 53.992 17.716 53.48 17.716C53.144 17.716 52.784 17.74 52.4 17.788C52.032 17.836 51.688 17.94 51.368 18.1C51.064 18.244 50.808 18.452 50.6 18.724C50.392 18.98 50.288 19.324 50.288 19.756C50.288 20.556 50.544 21.116 51.056 21.436C51.568 21.74 52.264 21.892 53.144 21.892ZM52.952 10.708C53.848 10.708 54.6 10.828 55.208 11.068C55.832 11.292 56.328 11.62 56.696 12.052C57.08 12.468 57.352 12.972 57.512 13.564C57.672 14.14 57.752 14.78 57.752 15.484V23.284C57.56 23.316 57.288 23.364 56.936 23.428C56.6 23.476 56.216 23.524 55.784 23.572C55.352 23.62 54.88 23.66 54.368 23.692C53.872 23.74 53.376 23.764 52.88 23.764C52.176 23.764 51.528 23.692 50.936 23.548C50.344 23.404 49.832 23.18 49.4 22.876C48.968 22.556 48.632 22.14 48.392 21.628C48.152 21.116 48.032 20.5 48.032 19.78C48.032 19.092 48.168 18.5 48.44 18.004C48.728 17.508 49.112 17.108 49.592 16.804C50.072 16.5 50.632 16.276 51.272 16.132C51.912 15.988 52.584 15.916 53.288 15.916C53.512 15.916 53.744 15.932 53.984 15.964C54.224 15.98 54.448 16.012 54.656 16.06C54.88 16.092 55.072 16.124 55.232 16.156C55.392 16.188 55.504 16.212 55.568 16.228V15.604C55.568 15.236 55.528 14.876 55.448 14.524C55.368 14.156 55.224 13.836 55.016 13.564C54.808 13.276 54.52 13.052 54.152 12.892C53.8 12.716 53.336 12.628 52.76 12.628C52.024 12.628 51.376 12.684 50.816 12.796C50.272 12.892 49.864 12.996 49.592 13.108L49.328 11.26C49.616 11.132 50.096 11.012 50.768 10.9C51.44 10.772 52.168 10.708 52.952 10.708ZM61.4591 11.38C61.9711 11.252 62.6511 11.116 63.4991 10.972C64.3471 10.828 65.3231 10.756 66.4271 10.756C67.4191 10.756 68.2431 10.9 68.8991 11.188C69.5551 11.46 70.0751 11.852 70.4591 12.364C70.8591 12.86 71.1391 13.46 71.2991 14.164C71.4591 14.868 71.5391 15.644 71.5391 16.492V23.5H69.3071V16.972C69.3071 16.204 69.2511 15.548 69.1391 15.004C69.0431 14.46 68.8751 14.02 68.6351 13.684C68.3951 13.348 68.0751 13.108 67.6751 12.964C67.2751 12.804 66.7791 12.724 66.1871 12.724C65.9471 12.724 65.6991 12.732 65.4431 12.748C65.1871 12.764 64.9391 12.788 64.6991 12.82C64.4751 12.836 64.2671 12.86 64.0751 12.892C63.8991 12.924 63.7711 12.948 63.6911 12.964V23.5H61.4591V11.38ZM85.1763 23.14C84.6643 23.268 83.9843 23.404 83.1363 23.548C82.3043 23.692 81.3363 23.764 80.2323 23.764C79.2723 23.764 78.4643 23.628 77.8083 23.356C77.1523 23.068 76.6243 22.668 76.2243 22.156C75.8243 21.644 75.5363 21.044 75.3603 20.356C75.1843 19.652 75.0963 18.876 75.0963 18.028V11.02H77.3283V17.548C77.3283 19.068 77.5683 20.156 78.0483 20.812C78.5283 21.468 79.3363 21.796 80.4723 21.796C80.7123 21.796 80.9603 21.788 81.2163 21.772C81.4723 21.756 81.7123 21.74 81.9363 21.724C82.1603 21.692 82.3603 21.668 82.5363 21.652C82.7283 21.62 82.8643 21.588 82.9443 21.556V11.02H85.1763V23.14ZM89.0216 11.38C89.5336 11.252 90.2136 11.116 91.0616 10.972C91.9096 10.828 92.8856 10.756 93.9896 10.756C94.9816 10.756 95.8056 10.9 96.4616 11.188C97.1176 11.46 97.6376 11.852 98.0216 12.364C98.4216 12.86 98.7016 13.46 98.8616 14.164C99.0216 14.868 99.1016 15.644 99.1016 16.492V23.5H96.8696V16.972C96.8696 16.204 96.8136 15.548 96.7016 15.004C96.6056 14.46 96.4376 14.02 96.1976 13.684C95.9576 13.348 95.6376 13.108 95.2376 12.964C94.8376 12.804 94.3416 12.724 93.7496 12.724C93.5096 12.724 93.2616 12.732 93.0056 12.748C92.7496 12.764 92.5016 12.788 92.2616 12.82C92.0376 12.836 91.8296 12.86 91.6376 12.892C91.4616 12.924 91.3336 12.948 91.2536 12.964V23.5H89.0216V11.38ZM104.891 11.02H109.619V12.892H104.891V18.652C104.891 19.276 104.939 19.796 105.035 20.212C105.131 20.612 105.275 20.932 105.467 21.172C105.659 21.396 105.899 21.556 106.187 21.652C106.475 21.748 106.811 21.796 107.195 21.796C107.867 21.796 108.403 21.724 108.803 21.58C109.219 21.42 109.507 21.308 109.667 21.244L110.099 23.092C109.875 23.204 109.483 23.34 108.923 23.5C108.363 23.676 107.723 23.764 107.003 23.764C106.155 23.764 105.451 23.66 104.891 23.452C104.347 23.228 103.907 22.9 103.571 22.468C103.235 22.036 102.995 21.508 102.851 20.884C102.723 20.244 102.659 19.508 102.659 18.676V7.54L104.891 7.156V11.02ZM116.683 21.892C117.211 21.892 117.675 21.884 118.075 21.868C118.491 21.836 118.835 21.788 119.107 21.724V18.004C118.947 17.924 118.683 17.86 118.315 17.812C117.963 17.748 117.531 17.716 117.019 17.716C116.683 17.716 116.323 17.74 115.939 17.788C115.571 17.836 115.227 17.94 114.907 18.1C114.603 18.244 114.347 18.452 114.139 18.724C113.931 18.98 113.827 19.324 113.827 19.756C113.827 20.556 114.083 21.116 114.595 21.436C115.107 21.74 115.803 21.892 116.683 21.892ZM116.491 10.708C117.387 10.708 118.139 10.828 118.747 11.068C119.371 11.292 119.867 11.62 120.235 12.052C120.619 12.468 120.891 12.972 121.051 13.564C121.211 14.14 121.291 14.78 121.291 15.484V23.284C121.099 23.316 120.827 23.364 120.475 23.428C120.139 23.476 119.755 23.524 119.323 23.572C118.891 23.62 118.419 23.66 117.907 23.692C117.411 23.74 116.915 23.764 116.419 23.764C115.715 23.764 115.067 23.692 114.475 23.548C113.883 23.404 113.371 23.18 112.939 22.876C112.507 22.556 112.171 22.14 111.931 21.628C111.691 21.116 111.571 20.5 111.571 19.78C111.571 19.092 111.707 18.5 111.979 18.004C112.267 17.508 112.651 17.108 113.131 16.804C113.611 16.5 114.171 16.276 114.811 16.132C115.451 15.988 116.123 15.916 116.827 15.916C117.051 15.916 117.283 15.932 117.523 15.964C117.763 15.98 117.987 16.012 118.195 16.06C118.419 16.092 118.611 16.124 118.771 16.156C118.931 16.188 119.043 16.212 119.107 16.228V15.604C119.107 15.236 119.067 14.876 118.987 14.524C118.907 14.156 118.763 13.836 118.555 13.564C118.347 13.276 118.059 13.052 117.691 12.892C117.339 12.716 116.875 12.628 116.299 12.628C115.563 12.628 114.915 12.684 114.355 12.796C113.811 12.892 113.403 12.996 113.131 13.108L112.867 11.26C113.155 11.132 113.635 11.012 114.307 10.9C114.979 10.772 115.707 10.708 116.491 10.708Z" fill="black"/>
<defs>
<linearGradient id="paint0_linear_1097_58139" x1="7.80181" y1="5.99408" x2="27.5995" y2="27.6192" gradientUnits="userSpaceOnUse">
<stop stop-color="#22397E"/>
<stop offset="0.493089" stop-color="#ED256E"/>
<stop offset="0.958301" stop-color="#E7B055"/>
</linearGradient>
</defs>
</svg>
