<svg width="35" height="35" viewBox="0 0 35 35" fill="none" xmlns="http://www.w3.org/2000/svg">
<path opacity="0.5" d="M24.642 27.4987C29.902 27.4987 34.1654 23.2854 34.1654 18.087C34.1654 13.967 31.487 10.4654 27.757 9.19036C27.227 4.4887 23.1904 0.832031 18.292 0.832031C13.032 0.832031 8.7687 5.04536 8.7687 10.2437C8.7687 11.3937 8.97703 12.4937 9.3587 13.5137C8.90291 13.4251 8.43968 13.3805 7.97536 13.3804C4.03036 13.382 0.832031 16.542 0.832031 20.4404C0.832031 24.3387 4.03036 27.4987 7.97536 27.4987H24.642Z" fill="#071E22"/>
<path d="M27.9747 34.1647C31.393 34.1647 34.1647 31.5314 34.1647 28.2814C34.1647 25.708 32.423 23.5197 29.998 22.7214C29.6564 19.783 27.0314 17.498 23.848 17.498C20.428 17.498 17.6564 20.1314 17.6564 23.3814C17.6564 24.098 17.793 24.788 18.0397 25.4247C17.7429 25.3693 17.4416 25.3414 17.1397 25.3414C14.578 25.3414 12.498 27.3147 12.498 29.753C12.498 32.1897 14.5764 34.1647 17.1414 34.1647H27.9747Z" fill="#071E22"/>
</svg>
