<svg width="35" height="35" viewBox="0 0 35 35" fill="none" xmlns="http://www.w3.org/2000/svg">
<path opacity="0.5" d="M8.33594 27.5026V27.3526C8.33594 25.9109 8.33594 24.5876 8.48094 23.5126C8.63927 22.3276 9.01427 21.0743 10.0443 20.0459C11.0743 19.0143 12.3276 18.6393 13.5109 18.4793C14.5876 18.3359 15.9109 18.3359 17.3543 18.3359H17.6509C19.0943 18.3359 20.4176 18.3359 21.4926 18.4809C22.6776 18.6393 23.9309 19.0143 24.9593 20.0443C25.9909 21.0743 26.3659 22.3276 26.5259 23.5109C26.6676 24.5726 26.6693 25.8709 26.6693 27.2893C30.9576 26.3726 34.1693 22.6026 34.1693 18.0893C34.1693 13.9726 31.4909 10.4693 27.7609 9.19427C27.2309 4.4926 23.1943 0.835938 18.2959 0.835938C13.0359 0.835938 8.7726 5.04927 8.7726 10.2476C8.7726 11.3976 8.98094 12.4976 9.3626 13.5176C8.90682 13.429 8.44358 13.3844 7.97927 13.3843C4.03427 13.3859 0.835938 16.5459 0.835938 20.4443C0.835938 24.3426 4.03427 27.5026 7.97927 27.5026H8.33594Z" fill="#E7B055"/>
<path fill-rule="evenodd" clip-rule="evenodd" d="M17.5026 34.1693C14.3593 34.1693 12.7893 34.1693 11.8126 33.1926C10.8359 32.2159 10.8359 30.6459 10.8359 27.5026C10.8359 24.3593 10.8359 22.7893 11.8126 21.8126C12.7893 20.8359 14.3593 20.8359 17.5026 20.8359C20.6459 20.8359 22.2159 20.8359 23.1926 21.8126C24.1693 22.7893 24.1693 24.3593 24.1693 27.5026C24.1693 30.6459 24.1693 32.2159 23.1926 33.1926C22.2159 34.1693 20.6459 34.1693 17.5026 34.1693ZM20.5109 29.0293L18.2876 31.2509C18.0792 31.4588 17.7969 31.5755 17.5026 31.5755C17.2083 31.5755 16.926 31.4588 16.7176 31.2509L14.4943 29.0293C14.3869 28.927 14.3011 28.8043 14.2418 28.6684C14.1826 28.5325 14.1512 28.3861 14.1494 28.2378C14.1475 28.0896 14.1754 27.9424 14.2313 27.8051C14.2872 27.6678 14.37 27.543 14.4749 27.4382C14.5797 27.3334 14.7045 27.2506 14.8418 27.1946C14.9791 27.1387 15.1262 27.1109 15.2745 27.1127C15.4227 27.1145 15.5691 27.1459 15.7051 27.2052C15.841 27.2644 15.9637 27.3502 16.0659 27.4576L16.3909 27.7826V24.5393C16.3909 24.2444 16.5081 23.9617 16.7165 23.7532C16.925 23.5447 17.2078 23.4276 17.5026 23.4276C17.7974 23.4276 18.0802 23.5447 18.2887 23.7532C18.4971 23.9617 18.6143 24.2444 18.6143 24.5393V27.7826L18.9393 27.4576C19.1494 27.2575 19.4294 27.1475 19.7195 27.151C20.0096 27.1546 20.2868 27.2714 20.492 27.4765C20.6972 27.6817 20.814 27.9589 20.8175 28.2491C20.8211 28.5392 20.711 28.8192 20.5109 29.0293Z" fill="#E7B055"/>
</svg>
