<svg width="34" height="35" viewBox="0 0 34 35" fill="none" xmlns="http://www.w3.org/2000/svg">
<path opacity="0.5" d="M24.142 27.4997C29.402 27.4997 33.6654 23.2863 33.6654 18.088C33.6654 13.968 30.987 10.4663 27.257 9.19134C26.727 4.48967 22.6904 0.833008 17.792 0.833008C12.532 0.833008 8.2687 5.04634 8.2687 10.2447C8.2687 11.3947 8.47703 12.4947 8.8587 13.5147C8.40291 13.4261 7.93968 13.3814 7.47536 13.3813C3.53036 13.383 0.332031 16.543 0.332031 20.4413C0.332031 24.3397 3.53036 27.4997 7.47536 27.4997H24.142Z" fill="white"/>
<path d="M27.4767 34.1667C30.895 34.1667 33.6667 31.5333 33.6667 28.2833C33.6667 25.71 31.925 23.5217 29.5 22.7233C29.1583 19.785 26.5333 17.5 23.35 17.5C19.93 17.5 17.1583 20.1333 17.1583 23.3833C17.1583 24.1 17.295 24.79 17.5417 25.4267C17.2449 25.3713 16.9436 25.3434 16.6417 25.3433C14.08 25.3433 12 27.3167 12 29.755C12 32.1917 14.0783 34.1667 16.6433 34.1667H27.4767Z" fill="white"/>
</svg>
