<svg width="30" height="35" viewBox="0 0 30 35" fill="none" xmlns="http://www.w3.org/2000/svg">
<path opacity="0.5" d="M0 14.8613C0 9.53134 4.96705e-08 6.86634 0.63 5.96967C1.25833 5.07467 3.76333 4.21634 8.775 2.50134L9.73 2.17467C12.3417 1.27967 13.6467 0.833008 15 0.833008C16.3517 0.833008 17.6583 1.27967 20.27 2.17467L21.225 2.50134C26.2367 4.21634 28.7417 5.07467 29.37 5.96967C30 6.86634 30 9.53301 30 14.8613V17.4847C30 26.8813 22.935 31.443 18.5017 33.378C17.3 33.903 16.7 34.1663 15 34.1663C13.3 34.1663 12.7 33.903 11.4983 33.378C7.065 31.4413 0 26.883 0 17.4847V14.8613Z" fill="#E7B055"/>
<path fill-rule="evenodd" clip-rule="evenodd" d="M13.2487 11.5013C13.7536 11.1227 14.3676 10.918 14.9987 10.918C15.6298 10.918 16.2438 11.1227 16.7487 11.5013L22.4154 15.7513C22.5467 15.8498 22.6573 15.9732 22.741 16.1144C22.8246 16.2557 22.8796 16.412 22.9028 16.5745C22.926 16.737 22.917 16.9025 22.8763 17.0615C22.8355 17.2205 22.7639 17.37 22.6654 17.5013C22.5669 17.6326 22.4435 17.7433 22.3022 17.8269C22.161 17.9105 22.0046 17.9655 21.8421 17.9887C21.6796 18.012 21.5142 18.0029 21.3551 17.9622C21.1961 17.9215 21.0467 17.8498 20.9154 17.7513L15.2487 13.5013C15.1766 13.4472 15.0889 13.418 14.9987 13.418C14.9085 13.418 14.8208 13.4472 14.7487 13.5013L9.08203 17.7513C8.95071 17.8498 8.80127 17.9215 8.64226 17.9622C8.48324 18.0029 8.31776 18.012 8.15525 17.9887C7.99275 17.9655 7.83641 17.9105 7.69516 17.8269C7.55392 17.7433 7.43052 17.6326 7.33203 17.5013C7.23354 17.37 7.16188 17.2205 7.12114 17.0615C7.0804 16.9025 7.07138 16.737 7.09459 16.5745C7.11781 16.412 7.1728 16.2557 7.25644 16.1144C7.34007 15.9732 7.45071 15.8498 7.58203 15.7513L13.2487 11.5013ZM14.2487 17.418C14.4651 17.2557 14.7282 17.168 14.9987 17.168C15.2692 17.168 15.5323 17.2557 15.7487 17.418L19.082 19.918C19.3472 20.1169 19.5226 20.413 19.5695 20.7412C19.6164 21.0694 19.5309 21.4028 19.332 21.668C19.1331 21.9332 18.837 22.1085 18.5088 22.1554C18.1806 22.2023 17.8472 22.1169 17.582 21.918L14.9987 19.9813L12.4154 21.918C12.1501 22.1169 11.8168 22.2023 11.4886 22.1554C11.1604 22.1085 10.8643 21.9332 10.6654 21.668C10.4665 21.4028 10.381 21.0694 10.4279 20.7412C10.4748 20.413 10.6501 20.1169 10.9154 19.918L14.2487 17.418Z" fill="#E7B055"/>
</svg>
