<svg width="31" height="35" viewBox="0 0 31 35" fill="none" xmlns="http://www.w3.org/2000/svg">
<path opacity="0.4" d="M1.46398 5.9726C0.833984 6.86927 0.833984 9.53594 0.833984 14.8643V17.4876C0.833984 26.8843 7.89898 31.4459 12.3323 33.3809C13.534 33.9059 14.1357 34.1693 15.834 34.1693C17.534 34.1693 18.134 33.9059 19.3356 33.3809C23.769 31.4443 30.834 26.8859 30.834 17.4876V14.8643C30.834 9.53427 30.834 6.86927 30.204 5.9726C29.5756 5.0776 27.0707 4.21927 22.059 2.50427L21.104 2.1776C18.4923 1.2826 17.1873 0.835938 15.834 0.835938C14.4823 0.835938 13.1757 1.2826 10.564 2.1776L9.60898 2.5026C4.59732 4.21927 2.09232 5.0776 1.46398 5.9726Z" fill="#E7B055"/>
<path fill-rule="evenodd" clip-rule="evenodd" d="M6.97724 13.8386C6.00478 16.1868 6.00499 18.8252 6.97784 21.1733C7.95068 23.5215 9.81647 25.3869 12.1647 26.3594C14.513 27.3319 17.1514 27.3316 19.4995 26.3588C21.8476 25.386 23.7131 23.5202 24.6856 21.1719C25.658 18.8236 25.6578 16.1852 24.685 13.8371C23.7121 11.489 21.8463 9.62352 19.4981 8.65106C17.1498 7.6786 14.5114 7.67882 12.1633 8.65167C9.81518 9.62451 7.9497 11.4903 6.97724 13.8386ZM15.7372 10.4519C15.7656 10.4348 15.7976 10.4245 15.8306 10.4219C15.8372 10.4219 15.8656 10.4219 15.9239 10.4519C16.0301 10.51 16.1259 10.5855 16.2072 10.6752C16.4622 10.9386 16.7539 11.3936 17.0272 12.0769C17.2972 12.7502 17.5206 13.5786 17.6772 14.5202C17.7689 15.0769 17.8356 15.6586 17.8739 16.2552H13.7872C13.8256 15.6586 13.8922 15.0769 13.9839 14.5219C14.1132 13.6861 14.3311 12.8665 14.6339 12.0769C14.9072 11.3936 15.2006 10.9386 15.4539 10.6752C15.5352 10.5855 15.631 10.51 15.7372 10.4519ZM11.5172 14.1119C11.4039 14.8036 11.3239 15.5236 11.2839 16.2552H8.85724C9.03623 15.2558 9.428 14.3065 10.006 13.4717C10.584 12.6369 11.3347 11.9361 12.2072 11.4169C11.8928 12.2916 11.6628 13.1939 11.5172 14.1119ZM8.8589 18.7552H11.2806C11.3222 19.4869 11.4022 20.2069 11.5156 20.8986C11.6612 21.8166 11.8928 22.7189 12.2072 23.5936C11.3347 23.0743 10.584 22.3735 10.006 21.5388C9.428 20.704 9.03789 19.7547 8.8589 18.7552ZM22.8022 16.2552C22.6236 15.2557 22.2319 14.3062 21.6539 13.4714C21.0759 12.6366 20.325 11.9359 19.4522 11.4169C19.7522 12.2269 19.9822 13.1402 20.1439 14.1119C20.2572 14.8036 20.3372 15.5236 20.3772 16.2552H22.8022ZM20.3789 18.7552H22.8022C22.6236 19.7548 22.2319 20.7042 21.6539 21.539C21.0759 22.3739 20.325 23.0746 19.4522 23.5936C19.7522 22.7836 19.9822 21.8702 20.1439 20.8986C20.2572 20.2069 20.3372 19.4869 20.3772 18.7552H20.3789ZM17.8739 18.7552C17.837 19.3359 17.7714 19.9144 17.6772 20.4886C17.548 21.3243 17.3301 22.1439 17.0272 22.9336C16.7539 23.6169 16.4606 24.0719 16.2072 24.3352C16.1259 24.4249 16.0301 24.5004 15.9239 24.5586C15.8955 24.5757 15.8636 24.5859 15.8306 24.5886C15.8239 24.5886 15.7956 24.5886 15.7372 24.5586C15.631 24.5004 15.5352 24.4249 15.4539 24.3352C15.1989 24.0719 14.9072 23.6169 14.6339 22.9336C14.3312 22.1445 14.1133 21.3254 13.9839 20.4902C13.8897 19.9155 13.824 19.3365 13.7872 18.7552H17.8739Z" fill="#E7B055"/>
</svg>
