<svg width="40" height="40" viewBox="0 0 40 40" fill="none" xmlns="http://www.w3.org/2000/svg">
<path opacity="0.5" d="M5 13.334C5 8.62065 5 6.26232 6.465 4.79898C7.92833 3.33398 10.2867 3.33398 15 3.33398H25C29.7133 3.33398 32.0717 3.33398 33.535 4.79898C35 6.26232 35 8.62065 35 13.334V26.6673C35 31.3807 35 33.739 33.535 35.2023C32.0717 36.6673 29.7133 36.6673 25 36.6673H15C10.2867 36.6673 7.92833 36.6673 6.465 35.2023C5 33.739 5 31.3807 5 26.6673V13.334Z" fill="#E7B055"/>
<path fill-rule="evenodd" clip-rule="evenodd" d="M14.5835 3.35352V36.6868H12.0835V3.35352H14.5835ZM2.0835 13.3335C2.0835 13.002 2.21519 12.6841 2.44961 12.4496C2.68403 12.2152 3.00198 12.0835 3.3335 12.0835H6.66683C6.99835 12.0835 7.31629 12.2152 7.55071 12.4496C7.78513 12.6841 7.91683 13.002 7.91683 13.3335C7.91683 13.665 7.78513 13.983 7.55071 14.2174C7.31629 14.4518 6.99835 14.5835 6.66683 14.5835H3.3335C3.00198 14.5835 2.68403 14.4518 2.44961 14.2174C2.21519 13.983 2.0835 13.665 2.0835 13.3335ZM2.0835 20.0002C2.0835 19.6687 2.21519 19.3507 2.44961 19.1163C2.68403 18.8819 3.00198 18.7502 3.3335 18.7502H6.66683C6.99835 18.7502 7.31629 18.8819 7.55071 19.1163C7.78513 19.3507 7.91683 19.6687 7.91683 20.0002C7.91683 20.3317 7.78513 20.6496 7.55071 20.8841C7.31629 21.1185 6.99835 21.2502 6.66683 21.2502H3.3335C3.00198 21.2502 2.68403 21.1185 2.44961 20.8841C2.21519 20.6496 2.0835 20.3317 2.0835 20.0002ZM2.0835 26.6668C2.0835 26.3353 2.21519 26.0174 2.44961 25.783C2.68403 25.5485 3.00198 25.4168 3.3335 25.4168H6.66683C6.99835 25.4168 7.31629 25.5485 7.55071 25.783C7.78513 26.0174 7.91683 26.3353 7.91683 26.6668C7.91683 26.9984 7.78513 27.3163 7.55071 27.5507C7.31629 27.7852 6.99835 27.9168 6.66683 27.9168H3.3335C3.00198 27.9168 2.68403 27.7852 2.44961 27.5507C2.21519 27.3163 2.0835 26.9984 2.0835 26.6668Z" fill="#E7B055"/>
<path d="M17.917 10.834C17.917 10.5025 18.0487 10.1845 18.2831 9.9501C18.5175 9.71568 18.8355 9.58398 19.167 9.58398H27.5003C27.8318 9.58398 28.1498 9.71568 28.3842 9.9501C28.6186 10.1845 28.7503 10.5025 28.7503 10.834C28.7503 11.1655 28.6186 11.4834 28.3842 11.7179C28.1498 11.9523 27.8318 12.084 27.5003 12.084H19.167C18.8355 12.084 18.5175 11.9523 18.2831 11.7179C18.0487 11.4834 17.917 11.1655 17.917 10.834ZM17.917 16.6673C17.917 16.3358 18.0487 16.0179 18.2831 15.7834C18.5175 15.549 18.8355 15.4173 19.167 15.4173H27.5003C27.8318 15.4173 28.1498 15.549 28.3842 15.7834C28.6186 16.0179 28.7503 16.3358 28.7503 16.6673C28.7503 16.9988 28.6186 17.3168 28.3842 17.5512C28.1498 17.7856 27.8318 17.9173 27.5003 17.9173H19.167C18.8355 17.9173 18.5175 17.7856 18.2831 17.5512C18.0487 17.3168 17.917 16.9988 17.917 16.6673Z" fill="#E7B055"/>
</svg>
