<svg width="41" height="40" viewBox="0 0 41 40" fill="none" xmlns="http://www.w3.org/2000/svg">
<path opacity="0.5" d="M27.643 29.9987C32.903 29.9987 37.1663 25.7854 37.1663 20.587C37.1663 16.467 34.488 12.9654 30.758 11.6904C30.228 6.9887 26.1913 3.33203 21.293 3.33203C16.033 3.33203 11.7697 7.54536 11.7697 12.7437C11.7697 13.8937 11.978 14.9937 12.3597 16.0137C11.9039 15.9251 11.4407 15.8805 10.9763 15.8804C7.03134 15.882 3.83301 19.042 3.83301 22.9404C3.83301 26.8387 7.03134 29.9987 10.9763 29.9987H27.643Z" fill="#071E22"/>
<path d="M30.9762 36.6647C34.3945 36.6647 37.1662 34.0314 37.1662 30.7814C37.1662 28.208 35.4245 26.0197 32.9995 25.2214C32.6578 22.283 30.0328 19.998 26.8495 19.998C23.4295 19.998 20.6578 22.6314 20.6578 25.8814C20.6578 26.598 20.7945 27.288 21.0412 27.9247C20.7444 27.8693 20.4431 27.8414 20.1412 27.8414C17.5795 27.8414 15.4995 29.8147 15.4995 32.253C15.4995 34.6897 17.5778 36.6647 20.1428 36.6647H30.9762Z" fill="#071E22"/>
</svg>
