<svg width="41" height="40" viewBox="0 0 41 40" fill="none" xmlns="http://www.w3.org/2000/svg">
<path opacity="0.5" d="M11.3359 30.0026V29.8526C11.3359 28.4109 11.3359 27.0876 11.4809 26.0126C11.6393 24.8276 12.0143 23.5743 13.0443 22.5459C14.0743 21.5143 15.3276 21.1393 16.5109 20.9793C17.5876 20.8359 18.9109 20.8359 20.3543 20.8359H20.6509C22.0943 20.8359 23.4176 20.8359 24.4926 20.9809C25.6776 21.1393 26.9309 21.5143 27.9593 22.5443C28.9909 23.5743 29.3659 24.8276 29.5259 26.0109C29.6676 27.0726 29.6693 28.3709 29.6693 29.7893C33.9576 28.8726 37.1693 25.1026 37.1693 20.5893C37.1693 16.4726 34.4909 12.9693 30.7609 11.6943C30.2309 6.9926 26.1943 3.33594 21.2959 3.33594C16.0359 3.33594 11.7726 7.54927 11.7726 12.7476C11.7726 13.8976 11.9809 14.9976 12.3626 16.0176C11.9068 15.929 11.4436 15.8844 10.9793 15.8843C7.03427 15.8859 3.83594 19.0459 3.83594 22.9443C3.83594 26.8426 7.03427 30.0026 10.9793 30.0026H11.3359Z" fill="#E7B055"/>
<path fill-rule="evenodd" clip-rule="evenodd" d="M20.5026 36.6693C17.3593 36.6693 15.7893 36.6693 14.8126 35.6926C13.8359 34.7159 13.8359 33.1459 13.8359 30.0026C13.8359 26.8593 13.8359 25.2893 14.8126 24.3126C15.7893 23.3359 17.3593 23.3359 20.5026 23.3359C23.6459 23.3359 25.2159 23.3359 26.1926 24.3126C27.1693 25.2893 27.1693 26.8593 27.1693 30.0026C27.1693 33.1459 27.1693 34.7159 26.1926 35.6926C25.2159 36.6693 23.6459 36.6693 20.5026 36.6693ZM23.5109 31.5293L21.2876 33.7509C21.0792 33.9588 20.7969 34.0755 20.5026 34.0755C20.2083 34.0755 19.926 33.9588 19.7176 33.7509L17.4943 31.5293C17.3869 31.427 17.3011 31.3043 17.2418 31.1684C17.1826 31.0325 17.1512 30.8861 17.1494 30.7378C17.1475 30.5896 17.1754 30.4424 17.2313 30.3051C17.2872 30.1678 17.37 30.043 17.4749 29.9382C17.5797 29.8334 17.7045 29.7506 17.8418 29.6946C17.9791 29.6387 18.1262 29.6109 18.2745 29.6127C18.4227 29.6145 18.5691 29.6459 18.7051 29.7052C18.841 29.7644 18.9637 29.8502 19.0659 29.9576L19.3909 30.2826V27.0393C19.3909 26.7444 19.5081 26.4617 19.7165 26.2532C19.925 26.0447 20.2078 25.9276 20.5026 25.9276C20.7974 25.9276 21.0802 26.0447 21.2887 26.2532C21.4971 26.4617 21.6143 26.7444 21.6143 27.0393V30.2826L21.9393 29.9576C22.1494 29.7575 22.4294 29.6475 22.7195 29.651C23.0096 29.6546 23.2868 29.7714 23.492 29.9765C23.6972 30.1817 23.814 30.4589 23.8175 30.7491C23.8211 31.0392 23.711 31.3192 23.5109 31.5293Z" fill="#E7B055"/>
</svg>
