<svg width="41" height="40" viewBox="0 0 41 40" fill="none" xmlns="http://www.w3.org/2000/svg">
<path opacity="0.4" d="M6.46337 8.4726C5.83337 9.36927 5.83337 12.0359 5.83337 17.3643V19.9876C5.83337 29.3843 12.8984 33.9459 17.3317 35.8809C18.5334 36.4059 19.135 36.6693 20.8334 36.6693C22.5334 36.6693 23.1334 36.4059 24.335 35.8809C28.7684 33.9443 35.8334 29.3859 35.8334 19.9876V17.3643C35.8334 12.0343 35.8334 9.36927 35.2034 8.4726C34.575 7.5776 32.07 6.71927 27.0584 5.00427L26.1034 4.6776C23.4917 3.7826 22.1867 3.33594 20.8334 3.33594C19.4817 3.33594 18.175 3.7826 15.5634 4.6776L14.6084 5.0026C9.59671 6.71927 7.09171 7.5776 6.46337 8.4726Z" fill="#E7B055"/>
<path fill-rule="evenodd" clip-rule="evenodd" d="M11.9766 16.3386C11.0042 18.6868 11.0044 21.3252 11.9772 23.6733C12.9501 26.0215 14.8159 27.8869 17.1641 28.8594C19.5124 29.8319 22.1508 29.8316 24.4989 28.8588C26.847 27.886 28.7125 26.0202 29.685 23.6719C30.6574 21.3236 30.6572 18.6852 29.6844 16.3371C28.7115 13.989 26.8457 12.1235 24.4975 11.1511C22.1492 10.1786 19.5108 10.1788 17.1627 11.1517C14.8146 12.1245 12.9491 13.9903 11.9766 16.3386ZM20.7366 12.9519C20.765 12.9348 20.7969 12.9245 20.83 12.9219C20.8366 12.9219 20.865 12.9219 20.9233 12.9519C21.0295 13.01 21.1253 13.0855 21.2066 13.1752C21.4616 13.4386 21.7533 13.8936 22.0266 14.5769C22.2966 15.2502 22.52 16.0786 22.6766 17.0202C22.7683 17.5769 22.835 18.1586 22.8733 18.7552H18.7866C18.825 18.1586 18.8916 17.5769 18.9833 17.0219C19.1126 16.1861 19.3305 15.3665 19.6333 14.5769C19.9066 13.8936 20.2 13.4386 20.4533 13.1752C20.5346 13.0855 20.6304 13.01 20.7366 12.9519ZM16.5166 16.6119C16.4033 17.3036 16.3233 18.0236 16.2833 18.7552H13.8566C14.0356 17.7558 14.4274 16.8065 15.0054 15.9717C15.5834 15.1369 16.3341 14.4361 17.2066 13.9169C16.8921 14.7916 16.6622 15.6939 16.5166 16.6119ZM13.8583 21.2552H16.28C16.3216 21.9869 16.4016 22.7069 16.515 23.3986C16.6606 24.3166 16.8921 25.2189 17.2066 26.0936C16.3341 25.5743 15.5834 24.8735 15.0054 24.0388C14.4274 23.204 14.0373 22.2547 13.8583 21.2552ZM27.8016 18.7552C27.6229 17.7557 27.2313 16.8062 26.6533 15.9714C26.0753 15.1366 25.3244 14.4359 24.4516 13.9169C24.7516 14.7269 24.9816 15.6402 25.1433 16.6119C25.2566 17.3036 25.3366 18.0236 25.3766 18.7552H27.8016ZM25.3783 21.2552H27.8016C27.6229 22.2548 27.2313 23.2042 26.6533 24.039C26.0753 24.8739 25.3244 25.5746 24.4516 26.0936C24.7516 25.2836 24.9816 24.3702 25.1433 23.3986C25.2566 22.7069 25.3366 21.9869 25.3766 21.2552H25.3783ZM22.8733 21.2552C22.8364 21.8359 22.7708 22.4144 22.6766 22.9886C22.5474 23.8243 22.3295 24.6439 22.0266 25.4336C21.7533 26.1169 21.46 26.5719 21.2066 26.8352C21.1253 26.9249 21.0295 27.0004 20.9233 27.0586C20.8949 27.0757 20.863 27.0859 20.83 27.0886C20.8233 27.0886 20.795 27.0886 20.7366 27.0586C20.6304 27.0004 20.5346 26.9249 20.4533 26.8352C20.1983 26.5719 19.9066 26.1169 19.6333 25.4336C19.3306 24.6445 19.1127 23.8254 18.9833 22.9902C18.8891 22.4155 18.8234 21.8365 18.7866 21.2552H22.8733Z" fill="#E7B055"/>
</svg>
