<svg width="41" height="41" viewBox="0 0 41 41" fill="none" xmlns="http://www.w3.org/2000/svg">
<path opacity="0.5" d="M11.104 30.7493V30.5956C11.104 29.1179 11.104 27.7615 11.2526 26.6596C11.4149 25.445 11.7993 24.1603 12.855 23.1063C13.9108 22.0488 15.1955 21.6644 16.4084 21.5004C17.512 21.3535 18.8684 21.3535 20.3478 21.3535H20.6519C22.1313 21.3535 23.4877 21.3535 24.5896 21.5021C25.8042 21.6644 27.0889 22.0488 28.1429 23.1046C29.2004 24.1603 29.5848 25.445 29.7488 26.6579C29.894 27.7461 29.8957 29.0769 29.8957 30.5307C34.2912 29.5911 37.5832 25.7268 37.5832 21.1007C37.5832 16.8811 34.8379 13.2902 31.0146 11.9833C30.4714 7.1641 26.3338 3.41602 21.313 3.41602C15.9215 3.41602 11.5516 7.73468 11.5516 13.063C11.5516 14.2417 11.7651 15.3692 12.1563 16.4147C11.6892 16.3239 11.2143 16.2782 10.7384 16.2781C6.6948 16.2798 3.4165 19.5188 3.4165 23.5146C3.4165 27.5104 6.6948 30.7493 10.7384 30.7493H11.104Z" fill="#4281A4"/>
<path fill-rule="evenodd" clip-rule="evenodd" d="M20.4998 23.916C17.2779 23.916 15.6687 23.916 14.6676 24.9171C13.6665 25.9182 13.6665 27.5274 13.6665 30.7493C13.6665 33.9713 13.6665 35.5805 14.6676 36.5816C15.6687 37.5827 17.2779 37.5827 20.4998 37.5827C23.7218 37.5827 25.331 37.5827 26.3321 36.5816C27.3332 35.5805 27.3332 33.9713 27.3332 30.7493C27.3332 27.5274 27.3332 25.9182 26.3321 24.9171C25.331 23.916 23.7218 23.916 20.4998 23.916ZM23.5834 29.1845L21.3045 26.9073C21.0909 26.6943 20.8015 26.5747 20.4998 26.5747C20.1982 26.5747 19.9088 26.6943 19.6952 26.9073L17.4163 29.1845C17.3062 29.2893 17.2183 29.4151 17.1576 29.5544C17.0968 29.6937 17.0646 29.8438 17.0628 29.9957C17.0609 30.1477 17.0895 30.2985 17.1468 30.4393C17.2041 30.58 17.2889 30.7079 17.3964 30.8154C17.5039 30.9228 17.6317 31.0077 17.7725 31.065C17.9133 31.1223 18.0641 31.1509 18.216 31.149C18.368 31.1472 18.518 31.1149 18.6574 31.0542C18.7967 30.9935 18.9224 30.9055 19.0273 30.7955L19.3604 30.4624V33.7868C19.3604 34.089 19.4804 34.3788 19.6941 34.5925C19.9078 34.8062 20.1976 34.9262 20.4998 34.9262C20.802 34.9262 21.0919 34.8062 21.3056 34.5925C21.5192 34.3788 21.6393 34.089 21.6393 33.7868V30.4624L21.9724 30.7955C22.1878 31.0006 22.4748 31.1133 22.7721 31.1097C23.0695 31.1061 23.3537 30.9864 23.564 30.7761C23.7743 30.5658 23.894 30.2816 23.8976 29.9842C23.9013 29.6869 23.7885 29.3999 23.5834 29.1845Z" fill="#4281A4"/>
</svg>
