<svg width="40" height="40" viewBox="0 0 40 40" fill="none" xmlns="http://www.w3.org/2000/svg">
<path opacity="0.5" fill-rule="evenodd" clip-rule="evenodd" d="M23.7984 3.58732C23.1817 3.33398 22.3984 3.33398 20.8334 3.33398C19.2684 3.33398 18.485 3.33398 17.8684 3.58732C17.0475 3.92434 16.394 4.57359 16.0517 5.39232C15.895 5.76398 15.835 6.19898 15.81 6.83065C15.7989 7.28832 15.6713 7.7356 15.4391 8.13018C15.207 8.52477 14.878 8.85362 14.4834 9.08565C14.0813 9.30916 13.6293 9.42756 13.1692 9.42989C12.7092 9.43222 12.256 9.3184 11.8517 9.09898C11.2884 8.80232 10.88 8.63898 10.4767 8.58565C9.59429 8.46979 8.70182 8.70698 7.99337 9.24565C7.46337 9.64898 7.0717 10.3223 6.29004 11.6673C5.5067 13.0123 5.1167 13.684 5.02837 14.3423C4.9117 15.219 5.1517 16.1057 5.69504 16.8073C5.9417 17.1273 6.29004 17.3957 6.82837 17.7323C7.62337 18.2273 8.13337 19.0707 8.13337 20.0007C8.13337 20.9307 7.62337 21.774 6.83004 22.2673C6.29004 22.6057 5.9417 22.874 5.69337 23.194C5.42518 23.5406 5.22832 23.9368 5.11418 24.3599C5.00004 24.783 4.97087 25.2246 5.02837 25.659C5.1167 26.3157 5.5067 26.989 6.29004 28.334C7.07337 29.679 7.46337 30.3506 7.99337 30.7556C8.70004 31.294 9.59337 31.5307 10.4767 31.4157C10.88 31.3623 11.2884 31.199 11.8517 30.9023C12.2562 30.6826 12.7097 30.5686 13.1701 30.571C13.6304 30.5733 14.0827 30.6918 14.485 30.9157C15.295 31.3823 15.775 32.2407 15.81 33.1707C15.835 33.804 15.895 34.2373 16.0517 34.609C16.3917 35.4256 17.045 36.0756 17.8684 36.414C18.485 36.6673 19.2684 36.6673 20.8334 36.6673C22.3984 36.6673 23.1817 36.6673 23.7984 36.414C24.6193 36.077 25.2727 35.4277 25.615 34.609C25.7717 34.2373 25.8317 33.804 25.8567 33.1707C25.89 32.2407 26.3717 31.3807 27.1834 30.9157C27.5855 30.6921 28.0375 30.5737 28.4975 30.5714C28.9575 30.5691 29.4107 30.6829 29.815 30.9023C30.3784 31.199 30.7867 31.3623 31.19 31.4157C32.0734 31.5323 32.9667 31.294 33.6734 30.7556C34.2034 30.3523 34.595 29.679 35.3767 28.334C36.16 26.989 36.55 26.3173 36.6384 25.659C36.6956 25.2244 36.6662 24.7829 36.5518 24.3598C36.4373 23.9367 36.2402 23.5404 35.9717 23.194C35.725 22.874 35.3767 22.6057 34.8384 22.269C34.0434 21.774 33.5334 20.9307 33.5334 20.0007C33.5334 19.0707 34.0434 18.2273 34.8367 17.734C35.3767 17.3957 35.725 17.1273 35.9734 16.8073C36.2416 16.4607 36.4384 16.0645 36.5526 15.6414C36.6667 15.2183 36.6959 14.7768 36.6384 14.3423C36.55 13.6857 36.16 13.0123 35.3767 11.6673C34.5934 10.3223 34.2034 9.65065 33.6734 9.24565C32.9649 8.70698 32.0724 8.46979 31.19 8.58565C30.7867 8.63898 30.3784 8.80232 29.815 9.09898C29.4105 9.3187 28.957 9.43268 28.4967 9.43035C28.0363 9.42802 27.584 9.30945 27.1817 9.08565C26.7874 8.85342 26.4587 8.52447 26.2269 8.1299C25.9951 7.73533 25.8676 7.28816 25.8567 6.83065C25.8317 6.19732 25.7717 5.76398 25.615 5.39232C25.4456 4.98688 25.198 4.61879 24.8863 4.30908C24.5746 3.99937 24.2049 3.75411 23.7984 3.58732Z" fill="#E7B055"/>
<path d="M25.8716 20C25.8716 22.7617 23.6149 25 20.8333 25C18.0499 25 15.7949 22.7617 15.7949 20C15.7949 17.2383 18.0499 15 20.8333 15C23.6166 15 25.8716 17.2383 25.8716 20Z" fill="#E7B055"/>
</svg>
