<svg width="41" height="40" viewBox="0 0 41 40" fill="none" xmlns="http://www.w3.org/2000/svg">
<path opacity="0.5" d="M5.5 17.3604C5.5 12.0304 5.5 9.36536 6.13 8.4687C6.75833 7.5737 9.26333 6.71536 14.275 5.00036L15.23 4.6737C17.8417 3.7787 19.1467 3.33203 20.5 3.33203C21.8517 3.33203 23.1583 3.7787 25.77 4.6737L26.725 5.00036C31.7367 6.71536 34.2417 7.5737 34.87 8.4687C35.5 9.36536 35.5 12.032 35.5 17.3604V19.9837C35.5 29.3804 28.435 33.942 24.0017 35.877C22.8 36.402 22.2 36.6654 20.5 36.6654C18.8 36.6654 18.2 36.402 16.9983 35.877C12.565 33.9404 5.5 29.382 5.5 19.9837V17.3604Z" fill="#E7B055"/>
<path fill-rule="evenodd" clip-rule="evenodd" d="M18.7502 13.9993C19.255 13.6207 19.8691 13.416 20.5002 13.416C21.1312 13.416 21.7453 13.6207 22.2502 13.9993L27.9168 18.2493C28.0482 18.3478 28.1588 18.4712 28.2424 18.6125C28.3261 18.7537 28.3811 18.9101 28.4043 19.0726C28.4275 19.2351 28.4185 19.4006 28.3777 19.5596C28.337 19.7186 28.2653 19.868 28.1668 19.9993C28.0683 20.1307 27.9449 20.2413 27.8037 20.3249C27.6624 20.4086 27.5061 20.4636 27.3436 20.4868C27.1811 20.51 27.0156 20.501 26.8566 20.4602C26.6976 20.4195 26.5482 20.3478 26.4168 20.2493L20.7502 15.9993C20.678 15.9453 20.5903 15.916 20.5002 15.916C20.41 15.916 20.3223 15.9453 20.2502 15.9993L14.5835 20.2493C14.4522 20.3478 14.3027 20.4195 14.1437 20.4602C13.9847 20.501 13.8192 20.51 13.6567 20.4868C13.4942 20.4636 13.3379 20.4086 13.1966 20.3249C13.0554 20.2413 12.932 20.1307 12.8335 19.9993C12.735 19.868 12.6633 19.7186 12.6226 19.5596C12.5819 19.4006 12.5728 19.2351 12.5961 19.0726C12.6193 18.9101 12.6743 18.7537 12.7579 18.6125C12.8415 18.4712 12.9522 18.3478 13.0835 18.2493L18.7502 13.9993ZM19.7502 19.916C19.9665 19.7537 20.2297 19.666 20.5002 19.666C20.7706 19.666 21.0338 19.7537 21.2502 19.916L24.5835 22.416C24.8487 22.6149 25.024 22.9111 25.0709 23.2392C25.1178 23.5674 25.0324 23.9008 24.8335 24.166C24.6346 24.4312 24.3385 24.6066 24.0103 24.6535C23.6821 24.7003 23.3487 24.6149 23.0835 24.416L20.5002 22.4793L17.9168 24.416C17.6516 24.6149 17.3182 24.7003 16.9901 24.6535C16.6619 24.6066 16.3657 24.4312 16.1668 24.166C15.9679 23.9008 15.8825 23.5674 15.9294 23.2392C15.9763 22.9111 16.1516 22.6149 16.4168 22.416L19.7502 19.916Z" fill="#E7B055"/>
</svg>
