<svg width="41" height="40" viewBox="0 0 41 40" fill="none" xmlns="http://www.w3.org/2000/svg">
<path d="M13.8109 29.1641C9.0776 29.1641 6.71094 29.1641 5.2426 27.6991C4.28927 26.7507 3.9526 25.4274 3.83594 23.3307V21.6641H37.1693V23.3307C37.0526 25.4274 36.7159 26.7507 35.7626 27.6991C34.2926 29.1641 31.9276 29.1641 27.1959 29.1641H21.7576V35.8307H27.1943C27.8876 35.8307 28.4493 36.3907 28.4493 37.0807C28.4493 37.7707 27.8876 38.3307 27.1943 38.3307H13.8109C13.6464 38.3312 13.4834 38.2992 13.3313 38.2366C13.1792 38.174 13.0409 38.082 12.9243 37.9659C12.8077 37.8498 12.7152 37.7119 12.652 37.56C12.5888 37.4081 12.5562 37.2452 12.5559 37.0807C12.5559 36.3907 13.1176 35.8307 13.8109 35.8307H19.2476V29.1641H13.8109Z" fill="#E7B055"/>
<path opacity="0.5" d="M22.682 3.33594H17.1693C10.8843 3.33594 7.74094 3.33594 5.78927 5.28927C3.83594 7.24094 3.83594 10.3843 3.83594 16.6693V18.3359C3.83594 19.2559 3.83594 20.9193 3.8476 21.6693H37.1593C37.1693 20.9193 37.1693 19.2559 37.1693 18.3359V16.6693C37.1693 15.9415 37.1693 15.2559 37.1662 14.6093C35.3467 16.0999 34.2122 16.346 32.5064 16.4449H23.8474C16.4542 15.5928 17.1693 6.70991 22.3008 5.29688C22.355 4.40144 22.4782 4.02581 22.682 3.33594Z" fill="#E7B055"/>
<path d="M32.4176 14.25C35.0435 14.25 37.1719 12.1466 37.1719 9.55152C37.1719 7.49474 35.8348 5.74664 33.9727 5.11014C33.7081 2.76298 31.6929 0.9375 29.2476 0.9375C26.6217 0.9375 24.4934 3.04088 24.4934 5.63598C24.4934 6.21008 24.5974 6.75922 24.7879 7.26843C24.5604 7.22418 24.3291 7.20189 24.0973 7.20186C22.1279 7.2027 20.5312 8.78023 20.5312 10.7263C20.5312 12.6725 22.1279 14.25 24.0973 14.25H32.4176Z" fill="#E7B055"/>
</svg>
