<svg width="41" height="40" viewBox="0 0 41 40" fill="none" xmlns="http://www.w3.org/2000/svg">
<path opacity="0.5" fill-rule="evenodd" clip-rule="evenodd" d="M23.9655 3.58927C23.3489 3.33594 22.5655 3.33594 21.0005 3.33594C19.4355 3.33594 18.6522 3.33594 18.0355 3.58927C17.2146 3.92629 16.5611 4.57555 16.2188 5.39427C16.0622 5.76594 16.0022 6.20094 15.9772 6.8326C15.9661 7.29028 15.8384 7.73755 15.6063 8.13214C15.3741 8.52672 15.0452 8.85558 14.6505 9.0876C14.2484 9.31111 13.7964 9.42951 13.3364 9.43184C12.8764 9.43417 12.4232 9.32036 12.0188 9.10094C11.4555 8.80427 11.0472 8.64094 10.6438 8.5876C9.76144 8.47174 8.86897 8.70894 8.16052 9.2476C7.63052 9.65094 7.23885 10.3243 6.45718 11.6693C5.67385 13.0143 5.28385 13.6859 5.19552 14.3443C5.07885 15.2209 5.31885 16.1076 5.86218 16.8093C6.10885 17.1293 6.45718 17.3976 6.99552 17.7343C7.79052 18.2293 8.30052 19.0726 8.30052 20.0026C8.30052 20.9326 7.79052 21.7759 6.99718 22.2693C6.45718 22.6076 6.10885 22.8759 5.86052 23.1959C5.59232 23.5425 5.39546 23.9388 5.28132 24.3619C5.16718 24.785 5.13802 25.2265 5.19552 25.6609C5.28385 26.3176 5.67385 26.9909 6.45718 28.3359C7.24052 29.6809 7.63052 30.3526 8.16052 30.7576C8.86718 31.2959 9.76052 31.5326 10.6438 31.4176C11.0472 31.3643 11.4555 31.2009 12.0188 30.9043C12.4234 30.6846 12.8769 30.5706 13.3372 30.5729C13.7976 30.5752 14.2499 30.6938 14.6522 30.9176C15.4622 31.3843 15.9422 32.2426 15.9772 33.1726C16.0022 33.8059 16.0622 34.2393 16.2188 34.6109C16.5588 35.4276 17.2122 36.0776 18.0355 36.4159C18.6522 36.6693 19.4355 36.6693 21.0005 36.6693C22.5655 36.6693 23.3489 36.6693 23.9655 36.4159C24.7864 36.0789 25.4399 35.4297 25.7822 34.6109C25.9389 34.2393 25.9988 33.8059 26.0238 33.1726C26.0572 32.2426 26.5388 31.3826 27.3505 30.9176C27.7526 30.6941 28.2046 30.5757 28.6646 30.5734C29.1247 30.571 29.5778 30.6849 29.9822 30.9043C30.5455 31.2009 30.9539 31.3643 31.3572 31.4176C32.2405 31.5343 33.1339 31.2959 33.8405 30.7576C34.3705 30.3543 34.7622 29.6809 35.5438 28.3359C36.3272 26.9909 36.7172 26.3193 36.8055 25.6609C36.8628 25.2264 36.8334 24.7848 36.7189 24.3617C36.6045 23.9386 36.4073 23.5424 36.1388 23.1959C35.8922 22.8759 35.5438 22.6076 35.0055 22.2709C34.2105 21.7759 33.7005 20.9326 33.7005 20.0026C33.7005 19.0726 34.2105 18.2293 35.0038 17.7359C35.5438 17.3976 35.8922 17.1293 36.1405 16.8093C36.4087 16.4627 36.6056 16.0664 36.7197 15.6433C36.8339 15.2202 36.863 14.7787 36.8055 14.3443C36.7172 13.6876 36.3272 13.0143 35.5438 11.6693C34.7605 10.3243 34.3705 9.6526 33.8405 9.2476C33.1321 8.70894 32.2396 8.47174 31.3572 8.5876C30.9539 8.64094 30.5455 8.80427 29.9822 9.10094C29.5776 9.32065 29.1242 9.43463 28.6638 9.4323C28.2035 9.42997 27.7511 9.3114 27.3489 9.0876C26.9545 8.85537 26.6259 8.52643 26.394 8.13186C26.1622 7.73729 26.0348 7.29012 26.0238 6.8326C25.9988 6.19927 25.9389 5.76594 25.7822 5.39427C25.6128 4.98883 25.3651 4.62074 25.0534 4.31103C24.7417 4.00133 24.372 3.75607 23.9655 3.58927Z" fill="#E7B055"/>
<path d="M26.0402 20C26.0402 22.7617 23.7835 25 21.0019 25C18.2185 25 15.9635 22.7617 15.9635 20C15.9635 17.2383 18.2185 15 21.0019 15C23.7852 15 26.0402 17.2383 26.0402 20Z" fill="#E7B055"/>
</svg>
