<svg width="41" height="40" viewBox="0 0 41 40" fill="none" xmlns="http://www.w3.org/2000/svg">
<path fill-rule="evenodd" clip-rule="evenodd" d="M12.9115 36.6615C12.9115 36.3299 13.0432 36.012 13.2776 35.7776C13.512 35.5432 13.83 35.4115 14.1615 35.4115H27.4948C27.8264 35.4115 28.1443 35.5432 28.3787 35.7776C28.6131 36.012 28.7448 36.3299 28.7448 36.6615C28.7448 36.993 28.6131 37.3109 28.3787 37.5453C28.1443 37.7798 27.8264 37.9115 27.4948 37.9115H14.1615C13.83 37.9115 13.512 37.7798 13.2776 37.5453C13.0432 37.3109 12.9115 36.993 12.9115 36.6615ZM20.8282 2.07812C21.1597 2.07812 21.4776 2.20982 21.712 2.44424C21.9465 2.67866 22.0782 2.9966 22.0782 3.32812V4.99479C22.0782 5.32631 21.9465 5.64425 21.712 5.87868C21.4776 6.1131 21.1597 6.24479 20.8282 6.24479C20.4966 6.24479 20.1787 6.1131 19.9443 5.87868C19.7099 5.64425 19.5782 5.32631 19.5782 4.99479V3.32812C19.5782 2.9966 19.7099 2.67866 19.9443 2.44424C20.1787 2.20982 20.4966 2.07813 20.8282 2.07812ZM2.9115 19.9948C2.9115 19.6633 3.0432 19.3453 3.27762 19.1109C3.51204 18.8765 3.82998 18.7448 4.1615 18.7448H5.82817C6.15969 18.7448 6.47763 18.8765 6.71205 19.1109C6.94647 19.3453 7.07817 19.6633 7.07817 19.9948C7.07817 20.3263 6.94647 20.6443 6.71205 20.8787C6.47763 21.1131 6.15969 21.2448 5.82817 21.2448H4.1615C3.82998 21.2448 3.51204 21.1131 3.27762 20.8787C3.0432 20.6443 2.9115 20.3263 2.9115 19.9948ZM34.5782 19.9948C34.5782 19.6633 34.7099 19.3453 34.9443 19.1109C35.1787 18.8765 35.4966 18.7448 35.8282 18.7448H37.4948C37.8264 18.7448 38.1443 18.8765 38.3787 19.1109C38.6131 19.3453 38.7448 19.6633 38.7448 19.9948C38.7448 20.3263 38.6131 20.6443 38.3787 20.8787C38.1443 21.1131 37.8264 21.2448 37.4948 21.2448H35.8282C35.4966 21.2448 35.1787 21.1131 34.9443 20.8787C34.7099 20.6443 34.5782 20.3263 34.5782 19.9948Z" fill="#E7B055"/>
<path opacity="0.5" d="M9.57817 19.9894C9.57817 21.9527 10.0815 23.7994 10.9665 25.4061H4.1615C3.82998 25.4061 3.51204 25.5378 3.27762 25.7722C3.0432 26.0066 2.9115 26.3245 2.9115 26.6561C2.9115 26.9876 3.0432 27.3055 3.27762 27.5399C3.51204 27.7744 3.82998 27.9061 4.1615 27.9061H19.5782V19.6727L18.3782 20.8727C18.2637 20.9955 18.1257 21.094 17.9724 21.1624C17.8191 21.2307 17.6535 21.2674 17.4857 21.2704C17.3179 21.2733 17.1511 21.2425 16.9955 21.1796C16.8399 21.1167 16.6985 21.0232 16.5798 20.9045C16.4611 20.7858 16.3675 20.6444 16.3046 20.4887C16.2418 20.3331 16.2109 20.1664 16.2138 19.9985C16.2168 19.8307 16.2535 19.6652 16.3219 19.5118C16.3902 19.3585 16.4887 19.2205 16.6115 19.1061L19.9448 15.7727C20.1792 15.5386 20.4969 15.4072 20.8282 15.4072C21.1594 15.4072 21.4771 15.5386 21.7115 15.7727L25.0448 19.1061C25.1676 19.2205 25.2661 19.3585 25.3345 19.5118C25.4028 19.6652 25.4395 19.8307 25.4425 19.9985C25.4454 20.1664 25.4146 20.3331 25.3517 20.4887C25.2888 20.6444 25.1953 20.7858 25.0766 20.9045C24.9579 21.0232 24.8165 21.1167 24.6608 21.1796C24.5052 21.2425 24.3385 21.2733 24.1706 21.2704C24.0028 21.2674 23.8373 21.2307 23.6839 21.1624C23.5306 21.094 23.3926 20.9955 23.2782 20.8727L22.0782 19.6727V27.9061H37.4948C37.8264 27.9061 38.1443 27.7744 38.3787 27.5399C38.6131 27.3055 38.7448 26.9876 38.7448 26.6561C38.7448 26.3245 38.6131 26.0066 38.3787 25.7722C38.1443 25.5378 37.8264 25.4061 37.4948 25.4061H30.6898C31.5153 23.9025 31.986 22.23 32.0659 20.5166C32.1459 18.8032 31.833 17.0942 31.1512 15.5203C30.4694 13.9464 29.4367 12.5492 28.1321 11.4356C26.8275 10.322 25.2855 9.52143 23.624 9.09514C21.9626 8.66886 20.2257 8.62814 18.5461 8.97608C16.8665 9.32403 15.2887 10.0514 13.9333 11.1027C12.5779 12.1539 11.4809 13.5012 10.7261 15.0414C9.97123 16.5817 9.57859 18.2741 9.57817 19.9894Z" fill="#E7B055"/>
<path d="M21.7115 15.7796C21.4771 15.5455 21.1594 15.4141 20.8282 15.4141C20.4969 15.4141 20.1792 15.5455 19.9448 15.7796L16.6115 19.113C16.4887 19.2274 16.3902 19.3654 16.3219 19.5187C16.2535 19.6721 16.2168 19.8376 16.2138 20.0054C16.2109 20.1733 16.2418 20.34 16.3046 20.4956C16.3675 20.6513 16.4611 20.7927 16.5798 20.9114C16.6985 21.0301 16.8399 21.1236 16.9955 21.1865C17.1511 21.2494 17.3179 21.2802 17.4857 21.2773C17.6535 21.2743 17.8191 21.2376 17.9724 21.1693C18.1257 21.1009 18.2637 21.0024 18.3782 20.8796L19.5782 19.6796V27.913H22.0782V19.6796L23.2782 20.8796C23.3926 21.0024 23.5306 21.1009 23.6839 21.1693C23.8373 21.2376 24.0028 21.2743 24.1706 21.2773C24.3385 21.2802 24.5052 21.2494 24.6608 21.1865C24.8165 21.1236 24.9579 21.0301 25.0766 20.9114C25.1953 20.7927 25.2888 20.6513 25.3517 20.4956C25.4146 20.34 25.4454 20.1733 25.4425 20.0054C25.4395 19.8376 25.4028 19.6721 25.3345 19.5187C25.2661 19.3654 25.1676 19.2274 25.0448 19.113L21.7115 15.7796ZM7.9115 31.663C7.9115 31.3314 8.04319 31.0135 8.27762 30.7791C8.51204 30.5447 8.82998 30.413 9.1615 30.413H32.4948C32.8264 30.413 33.1443 30.5447 33.3787 30.7791C33.6131 31.0135 33.7448 31.3314 33.7448 31.663C33.7448 31.9945 33.6131 32.3124 33.3787 32.5468C33.1443 32.7813 32.8264 32.913 32.4948 32.913H9.1615C8.82998 32.913 8.51204 32.7813 8.27762 32.5468C8.04319 32.3124 7.9115 31.9945 7.9115 31.663Z" fill="#E7B055"/>
<path opacity="0.5" d="M8.15988 7.32734C8.27596 7.21118 8.4138 7.11903 8.56551 7.05616C8.71722 6.9933 8.87983 6.96094 9.04405 6.96094C9.20826 6.96094 9.37087 6.9933 9.52258 7.05616C9.67429 7.11903 9.81213 7.21118 9.92821 7.32734L10.5832 7.98234C10.804 8.2193 10.9242 8.53271 10.9185 8.85654C10.9128 9.18038 10.7816 9.48935 10.5526 9.71837C10.3236 9.94739 10.0146 10.0786 9.69075 10.0843C9.36691 10.09 9.0535 9.9698 8.81654 9.749L8.15988 9.09567C7.92579 8.8613 7.79431 8.54359 7.79431 8.21234C7.79431 7.88109 7.92579 7.56338 8.15988 7.329V7.32734ZM33.4965 7.329C33.7306 7.56338 33.8621 7.88109 33.8621 8.21234C33.8621 8.54359 33.7306 8.8613 33.4965 9.09567L32.8432 9.75067C32.6063 9.97147 32.2928 10.0917 31.969 10.086C31.6452 10.0802 31.3362 9.94906 31.1072 9.72004C30.8782 9.49102 30.747 9.18204 30.7413 8.85821C30.7355 8.53437 30.8557 8.22096 31.0765 7.984L31.7299 7.329C31.9643 7.09492 32.282 6.96344 32.6132 6.96344C32.9445 6.96344 33.2622 7.09492 33.4965 7.329Z" fill="#E7B055"/>
</svg>
