<svg width="41" height="40" viewBox="0 0 41 40" fill="none" xmlns="http://www.w3.org/2000/svg">
<path d="M13.4776 29.1641C8.74426 29.1641 6.37759 29.1641 4.90926 27.6991C3.95593 26.7507 3.61926 25.4274 3.50259 23.3307V21.6641H36.8359V23.3307C36.7193 25.4274 36.3826 26.7507 35.4293 27.6991C33.9593 29.1641 31.5943 29.1641 26.8626 29.1641H21.4243V35.8307H26.8609C27.5543 35.8307 28.1159 36.3907 28.1159 37.0807C28.1159 37.7707 27.5543 38.3307 26.8609 38.3307H13.4776C13.3131 38.3312 13.1501 38.2992 12.998 38.2366C12.8458 38.174 12.7075 38.082 12.591 37.9659C12.4744 37.8498 12.3819 37.7119 12.3187 37.56C12.2555 37.4081 12.2228 37.2452 12.2226 37.0807C12.2226 36.3907 12.7843 35.8307 13.4776 35.8307H18.9143V29.1641H13.4776Z" fill="#E7B055"/>
<path opacity="0.5" d="M22.8677 3.375H16.8516C10.5666 3.375 7.42322 3.375 5.47155 5.32833C3.51822 7.28 3.51822 10.4233 3.51822 16.7083V18.375C3.51822 19.295 3.51822 20.9583 3.52989 21.7083H36.8415C36.8515 20.9583 36.8516 19.295 36.8516 18.375V16.7083C36.8516 15.7046 36.8516 14.781 36.8436 13.9296C35.8251 14.5294 35.265 14.6641 34.2829 14.5948C33.5693 16.0569 32.45 16.7052 30.3998 16.6886C28.3496 16.6719 27.2912 16.1123 26.5141 14.5948C24.9588 14.7769 23.7712 14.0632 22.7689 12.365C21.7666 10.6668 21.6252 9.2933 22.6167 7.90373C21.5977 6.44267 21.8122 4.76744 22.8677 3.375Z" fill="#E7B055"/>
<path fill-rule="evenodd" clip-rule="evenodd" d="M31.5636 1.42031C31.3202 1.32031 31.011 1.32031 30.3932 1.32031C29.7755 1.32031 29.4663 1.32031 29.2229 1.42031C28.8988 1.55334 28.6409 1.80962 28.5058 2.13279C28.4439 2.2795 28.4203 2.4512 28.4104 2.70054C28.406 2.8812 28.3556 3.05775 28.264 3.2135C28.1723 3.36925 28.0425 3.49906 27.8867 3.59065C27.728 3.67887 27.5496 3.72561 27.368 3.72653C27.1864 3.72745 27.0075 3.68252 26.8479 3.59591C26.6256 3.47881 26.4644 3.41434 26.3052 3.39328C25.9569 3.34755 25.6046 3.44118 25.3249 3.6538C25.1157 3.81301 24.9611 4.07879 24.6526 4.6097C24.3434 5.14061 24.1894 5.40573 24.1546 5.66559C24.1085 6.01164 24.2033 6.36163 24.4177 6.63859C24.5151 6.76491 24.6526 6.87083 24.8651 7.00372C25.1789 7.19911 25.3802 7.53199 25.3802 7.89909C25.3802 8.26618 25.1789 8.59907 24.8657 8.7938C24.6526 8.92735 24.5151 9.03327 24.4171 9.15958C24.3112 9.29638 24.2335 9.4528 24.1885 9.61981C24.1434 9.78682 24.1319 9.9611 24.1546 10.1326C24.1894 10.3918 24.3434 10.6576 24.6526 11.1885C24.9618 11.7194 25.1157 11.9845 25.3249 12.1444C25.6039 12.3569 25.9565 12.4503 26.3052 12.4049C26.4644 12.3838 26.6256 12.3194 26.8479 12.2023C27.0076 12.1155 27.1866 12.0705 27.3683 12.0715C27.55 12.0724 27.7286 12.1192 27.8874 12.2075C28.2071 12.3917 28.3966 12.7305 28.4104 13.0976C28.4203 13.3476 28.4439 13.5187 28.5058 13.6654C28.64 13.9877 28.8979 14.2443 29.2229 14.3779C29.4663 14.4779 29.7755 14.4779 30.3932 14.4779C31.011 14.4779 31.3202 14.4779 31.5636 14.3779C31.8876 14.2448 32.1456 13.9886 32.2807 13.6654C32.3425 13.5187 32.3662 13.3476 32.3761 13.0976C32.3892 12.7305 32.5794 12.3911 32.8997 12.2075C33.0585 12.1193 33.2369 12.0726 33.4185 12.0716C33.6001 12.0707 33.7789 12.1157 33.9385 12.2023C34.1609 12.3194 34.3221 12.3838 34.4813 12.4049C34.83 12.4509 35.1826 12.3569 35.4615 12.1444C35.6707 11.9852 35.8253 11.7194 36.1339 11.1885C36.4431 10.6576 36.597 10.3924 36.6319 10.1326C36.6545 9.96106 36.6429 9.78675 36.5977 9.61974C36.5525 9.45273 36.4747 9.29633 36.3687 9.15958C36.2714 9.03327 36.1339 8.92735 35.9214 8.79446C35.6076 8.59907 35.4063 8.26618 35.4063 7.89909C35.4063 7.53199 35.6076 7.19911 35.9207 7.00437C36.1339 6.87083 36.2714 6.76491 36.3694 6.63859C36.4753 6.50179 36.553 6.34537 36.598 6.17836C36.6431 6.01136 36.6546 5.83708 36.6319 5.66559C36.597 5.40639 36.4431 5.14061 36.1339 4.6097C35.8247 4.07879 35.6707 3.81367 35.4615 3.6538C35.1819 3.44118 34.8296 3.34755 34.4813 3.39328C34.3221 3.41434 34.1609 3.47881 33.9385 3.59591C33.7789 3.68264 33.5999 3.72763 33.4181 3.72671C33.2364 3.72579 33.0579 3.67899 32.8991 3.59065C32.7434 3.49898 32.6137 3.36914 32.5222 3.21339C32.4307 3.05764 32.3804 2.88113 32.3761 2.70054C32.3662 2.45055 32.3425 2.2795 32.2807 2.13279C32.2138 1.97275 32.1161 1.82746 31.993 1.70521C31.87 1.58296 31.7241 1.48615 31.5636 1.42031ZM30.3932 9.87272C31.4919 9.87272 32.382 8.98919 32.382 7.89909C32.382 6.80899 31.4912 5.92546 30.3932 5.92546C29.2946 5.92546 28.4045 6.80899 28.4045 7.89909C28.4045 8.98919 29.2952 9.87272 30.3932 9.87272Z" fill="#E7B055"/>
</svg>
