<svg width="41" height="40" viewBox="0 0 41 40" fill="none" xmlns="http://www.w3.org/2000/svg">
<path opacity="0.5" d="M16.6927 3.33398H23.3594C29.6444 3.33398 32.7877 3.33398 34.7394 5.28732C36.6927 7.23898 36.6927 10.3823 36.6927 16.6673V18.334C36.6927 19.254 36.6927 20.9173 36.6827 21.6673H3.37104C3.35937 20.9173 3.35938 19.254 3.35938 18.334V16.6673C3.35938 10.3823 3.35937 7.23898 5.31271 5.28732C7.26437 3.33398 10.4077 3.33398 16.6927 3.33398Z" fill="#60935D"/>
<path d="M13.3344 29.168C8.60104 29.168 6.23438 29.168 4.76604 27.703C3.81271 26.7546 3.47604 25.4313 3.35938 23.3346V21.668H36.6927V23.3346C36.576 25.4313 36.2394 26.7546 35.286 27.703C33.816 29.168 31.451 29.168 26.7194 29.168H21.281V35.8346H26.7177C27.411 35.8346 27.9727 36.3946 27.9727 37.0846C27.9727 37.7746 27.411 38.3346 26.7177 38.3346H13.3344C13.1699 38.3351 13.0069 38.3031 12.8547 38.2405C12.7026 38.1779 12.5643 38.0859 12.4477 37.9698C12.3312 37.8537 12.2387 37.7158 12.1754 37.5639C12.1122 37.412 12.0796 37.2491 12.0794 37.0846C12.0794 36.3946 12.641 35.8346 13.3344 35.8346H18.771V29.168H13.3344Z" fill="#60935D"/>
</svg>
