<svg width="42" height="41" viewBox="0 0 42 41" fill="none" xmlns="http://www.w3.org/2000/svg">
<path opacity="0.5" d="M11.604 30.7493V30.5956C11.604 29.1179 11.604 27.7615 11.7526 26.6596C11.9149 25.445 12.2993 24.1603 13.355 23.1063C14.4108 22.0488 15.6955 21.6644 16.9084 21.5004C18.012 21.3535 19.3684 21.3535 20.8478 21.3535H21.1519C22.6313 21.3535 23.9877 21.3535 25.0896 21.5021C26.3042 21.6644 27.5889 22.0488 28.6429 23.1046C29.7004 24.1603 30.0848 25.445 30.2488 26.6579C30.394 27.7461 30.3957 29.0769 30.3957 30.5307C34.7912 29.5911 38.0832 25.7269 38.0832 21.1007C38.0832 16.8811 35.3379 13.2902 31.5146 11.9833C30.9714 7.1641 26.8338 3.41602 21.813 3.41602C16.4215 3.41602 12.0516 7.73468 12.0516 13.063C12.0516 14.2417 12.2651 15.3692 12.6563 16.4147C12.1892 16.3239 11.7143 16.2782 11.2384 16.2781C7.1948 16.2798 3.9165 19.5188 3.9165 23.5146C3.9165 27.5103 7.1948 30.7493 11.2384 30.7493H11.604Z" fill="#E7B055"/>
<path fill-rule="evenodd" clip-rule="evenodd" d="M20.9998 23.916C17.7779 23.916 16.1687 23.916 15.1676 24.9171C14.1665 25.9182 14.1665 27.5274 14.1665 30.7493C14.1665 33.9713 14.1665 35.5805 15.1676 36.5816C16.1687 37.5827 17.7779 37.5827 20.9998 37.5827C24.2218 37.5827 25.831 37.5827 26.8321 36.5816C27.8332 35.5805 27.8332 33.9713 27.8332 30.7493C27.8332 27.5274 27.8332 25.9182 26.8321 24.9171C25.831 23.916 24.2218 23.916 20.9998 23.916ZM24.0834 29.1845L21.8045 26.9073C21.5909 26.6943 21.3015 26.5747 20.9998 26.5747C20.6982 26.5747 20.4088 26.6943 20.1952 26.9073L17.9163 29.1845C17.8062 29.2893 17.7183 29.4151 17.6576 29.5544C17.5968 29.6937 17.5646 29.8438 17.5628 29.9957C17.5609 30.1477 17.5895 30.2985 17.6468 30.4393C17.7041 30.58 17.7889 30.7079 17.8964 30.8154C18.0039 30.9228 18.1317 31.0077 18.2725 31.065C18.4133 31.1223 18.5641 31.1509 18.716 31.149C18.868 31.1472 19.018 31.1149 19.1574 31.0542C19.2967 30.9935 19.4224 30.9055 19.5273 30.7955L19.8604 30.4624V33.7868C19.8604 34.089 19.9804 34.3788 20.1941 34.5925C20.4078 34.8062 20.6976 34.9262 20.9998 34.9262C21.302 34.9262 21.5919 34.8062 21.8056 34.5925C22.0192 34.3788 22.1393 34.089 22.1393 33.7868V30.4624L22.4724 30.7955C22.6878 31.0006 22.9748 31.1133 23.2721 31.1097C23.5695 31.1061 23.8537 30.9864 24.064 30.7761C24.2743 30.5658 24.394 30.2816 24.3976 29.9842C24.4013 29.6869 24.2885 29.3999 24.0834 29.1845Z" fill="#E7B055"/>
</svg>
