<svg width="37" height="36" viewBox="0 0 37 36" fill="none" xmlns="http://www.w3.org/2000/svg">
<g id="Group">
<path id="Vector" d="M28.3776 11.3333C28.3776 12.2174 28.0264 13.0652 27.4013 13.6904C26.7762 14.3155 25.9283 14.6667 25.0443 14.6667C24.1602 14.6667 23.3124 14.3155 22.6872 13.6904C22.0621 13.0652 21.7109 12.2174 21.7109 11.3333C21.7109 10.4493 22.0621 9.60143 22.6872 8.97631C23.3124 8.35119 24.1602 8 25.0443 8C25.9283 8 26.7762 8.35119 27.4013 8.97631C28.0264 9.60143 28.3776 10.4493 28.3776 11.3333Z" fill="#E7B055"/>
<path id="Vector_2" fill-rule="evenodd" clip-rule="evenodd" d="M18.2826 0.0830078H18.4726C22.3209 0.0830078 25.3359 0.0830079 27.6893 0.399675C30.0959 0.723008 31.9959 1.39967 33.4876 2.88967C34.9793 4.38134 35.6543 6.28134 35.9776 8.68967C36.2943 11.0413 36.2943 14.0563 36.2943 17.9047V18.0513C36.2943 21.233 36.2943 23.8363 36.1209 25.9563C35.9476 28.0897 35.5926 29.868 34.7959 31.348C34.4459 31.9997 34.0126 32.5847 33.4876 33.1097C31.9959 34.6013 30.0959 35.2763 27.6876 35.5997C25.3359 35.9163 22.3209 35.9163 18.4726 35.9163H18.2826C14.4343 35.9163 11.4193 35.9163 9.06594 35.5997C6.65927 35.2763 4.75927 34.5997 3.2676 33.1097C1.94594 31.788 1.2626 30.143 0.900938 28.0997C0.542604 26.0947 0.477604 23.5997 0.464271 20.503C0.460937 19.7147 0.460938 18.8813 0.460938 18.0013V17.9047C0.460938 14.0563 0.460938 11.0413 0.777604 8.68801C1.10094 6.28134 1.7776 4.38134 3.2676 2.88967C4.75927 1.39801 6.65927 0.723008 9.0676 0.399675C11.4193 0.0830079 14.4343 0.0830078 18.2826 0.0830078ZM9.39927 2.87634C7.26927 3.16301 5.98427 3.70967 5.03594 4.65801C4.08594 5.60801 3.54094 6.89134 3.25427 9.02301C2.96427 11.1897 2.96094 14.0363 2.96094 17.9997C2.96094 18.8813 2.96094 19.7097 2.96427 20.4913C2.9776 23.6147 3.0476 25.9013 3.36094 27.663C3.6676 29.388 4.19094 30.4963 5.03594 31.3413C5.98594 32.2913 7.26927 32.8363 9.40094 33.123C11.5676 33.413 14.4143 33.4163 18.3776 33.4163C22.3409 33.4163 25.1876 33.413 27.3543 33.123C29.4859 32.8363 30.7709 32.2897 31.7209 31.3413C32.0709 30.9913 32.3559 30.6047 32.5943 30.163C33.1476 29.1363 33.4659 27.763 33.6293 25.7547C33.7926 23.7463 33.7943 21.243 33.7943 17.9997C33.7943 14.0363 33.7909 11.1897 33.5009 9.02301C33.2143 6.89134 32.6676 5.60634 31.7193 4.65634C30.7693 3.70801 29.4859 3.16301 27.3543 2.87634C25.1876 2.58634 22.3409 2.58301 18.3776 2.58301C14.4143 2.58301 11.5659 2.58634 9.39927 2.87634Z" fill="#E7B055"/>
<path id="Vector_3" opacity="0.4" d="M32.7226 29.9096L28.0059 25.6646C27.1647 24.9073 26.0914 24.4578 24.9615 24.3897C23.8316 24.3215 22.7121 24.6388 21.7859 25.2896L21.2876 25.6396C20.6457 26.0907 19.8652 26.3009 19.0835 26.2332C18.3019 26.1656 17.5691 25.8243 17.0143 25.2696L9.86427 18.1196C9.17654 17.4325 8.25344 17.0323 7.28181 17.0001C6.31019 16.968 5.36263 17.3062 4.63094 17.9463L2.96094 19.4063L2.96427 20.4896C2.9776 23.6146 3.0476 25.9013 3.36094 27.6629C3.66927 29.3879 4.19094 30.4963 5.03594 31.3413C5.98594 32.2913 7.26927 32.8363 9.40094 33.1229C11.5676 33.4129 14.4143 33.4163 18.3776 33.4163C22.3409 33.4163 25.1893 33.4129 27.3559 33.1229C29.4859 32.8363 30.7709 32.2896 31.7193 31.3413C32.1353 30.9268 32.475 30.4421 32.7226 29.9096Z" fill="#E7B055"/>
</g>
</svg>
