<svg width="130" height="40" viewBox="0 0 130 40" fill="none" xmlns="http://www.w3.org/2000/svg">
<path fill-rule="evenodd" clip-rule="evenodd" d="M12.3658 22.8537L13.7927 21.4269L8.08534 15.7196L6.18289 13.8171L4.75606 15.2439L1.90239 18.0976C1.11437 18.8856 1.11437 20.1633 1.90239 20.9513L2.378 21.4269L6.6585 25.7074L9.51217 22.8537L8.08534 21.4269L6.6585 22.8537L3.80483 20.0001C3.54216 19.7374 3.54216 19.3115 3.80483 19.0488L6.18289 16.6708L12.3658 22.8537ZM22.3539 12.8659L20.927 14.2927L14.7441 8.10974L12.366 10.4878C12.1033 10.7505 12.1033 11.1763 12.366 11.439L13.7928 12.8659L12.366 14.2927L10.9392 12.8659L10.4636 12.3902C9.67555 11.6022 9.67555 10.3246 10.4636 9.53657L13.3172 6.6829L14.7441 5.25607L16.6465 7.15851L22.3539 12.8659ZM16.6464 12.8659L18.0732 14.2927L13.7927 18.5732L12.3659 17.1464L16.6464 12.8659ZM25.2076 21.4269L26.6344 22.8537L22.3539 27.1342L20.9271 25.7074L25.2076 21.4269ZM20.927 22.8537L22.3539 21.4269L18.0733 17.1464L16.6465 18.5732L20.927 22.8537ZM25.2076 18.5732L26.6344 17.1464L32.8174 23.3293L35.1954 20.9513C35.4581 20.6886 35.4581 20.2627 35.1954 20.0001L32.3417 17.1464L30.9149 18.5732L29.4881 17.1464L32.3417 14.2927L36.6223 18.5732L37.0979 19.0488C37.8859 19.8369 37.8859 21.1145 37.0979 21.9025L34.2442 24.7562L32.8174 26.183L30.9149 24.2806L25.2076 18.5732ZM20.927 17.1464L22.3539 18.5732L28.0611 12.866L28.5367 12.3903C29.3248 11.6023 29.3248 10.3247 28.5367 9.53668L25.6831 6.68301L24.2562 5.25618L22.3538 7.15862L20.927 8.58546L22.3538 10.0123L23.7806 8.58546C24.0433 8.32278 24.4692 8.32278 24.7318 8.58546L27.1099 10.9635L20.927 17.1464ZM16.6464 21.427L18.0732 22.8538L11.8903 29.0367L14.2684 31.4147C14.5311 31.6774 14.957 31.6774 15.2196 31.4147L16.6465 29.9879L18.0733 31.4147L16.6465 32.8416L14.744 34.744L13.3172 33.3172L10.4635 30.4635C9.6755 29.6755 9.6755 28.3979 10.4635 27.6098L10.9391 27.1342L16.6464 21.427ZM18.0732 25.7074L16.6464 27.1342L22.3537 32.8415L24.2561 34.7439L25.683 33.3171L28.5366 30.4634C29.3246 29.6754 29.3246 28.3978 28.5366 27.6098L28.061 27.1341L26.6342 25.7073L25.2073 27.1341L26.6342 28.561C26.8969 28.8237 26.8969 29.2495 26.6342 29.5122L24.2561 31.8903L18.0732 25.7074Z" fill="white"/>
<path d="M52.52 27.288C51.672 27.288 50.92 27.136 50.264 26.832C49.624 26.512 49.12 26.08 48.752 25.536C48.384 24.976 48.2 24.336 48.2 23.616C48.2 22.928 48.344 22.312 48.632 21.768C48.936 21.208 49.4 20.736 50.024 20.352C50.664 19.968 51.464 19.696 52.424 19.536L57.224 18.744V20.616L52.928 21.336C52.096 21.48 51.488 21.744 51.104 22.128C50.736 22.512 50.552 22.984 50.552 23.544C50.552 24.072 50.76 24.512 51.176 24.864C51.608 25.216 52.144 25.392 52.784 25.392C53.6 25.392 54.304 25.224 54.896 24.888C55.504 24.536 55.976 24.064 56.312 23.472C56.664 22.88 56.84 22.224 56.84 21.504V18.216C56.84 17.512 56.576 16.944 56.048 16.512C55.536 16.064 54.856 15.84 54.008 15.84C53.272 15.84 52.616 16.032 52.04 16.416C51.48 16.784 51.064 17.28 50.792 17.904L48.848 16.896C49.088 16.304 49.472 15.776 50 15.312C50.528 14.832 51.144 14.456 51.848 14.184C52.552 13.912 53.288 13.776 54.056 13.776C55.048 13.776 55.92 13.968 56.672 14.352C57.424 14.72 58.008 15.24 58.424 15.912C58.856 16.568 59.072 17.336 59.072 18.216V27H56.888V24.552L57.296 24.696C57.024 25.208 56.656 25.656 56.192 26.04C55.728 26.424 55.184 26.728 54.56 26.952C53.936 27.176 53.256 27.288 52.52 27.288ZM62.5327 27V14.064H64.7167V16.584L64.3567 16.368C64.6767 15.552 65.1887 14.92 65.8927 14.472C66.6127 14.008 67.4527 13.776 68.4127 13.776C69.3407 13.776 70.1647 13.984 70.8847 14.4C71.6207 14.816 72.1967 15.392 72.6127 16.128C73.0447 16.864 73.2607 17.696 73.2607 18.624V27H71.0047V19.344C71.0047 18.624 70.8767 18.016 70.6207 17.52C70.3647 17.024 69.9967 16.64 69.5167 16.368C69.0527 16.08 68.5167 15.936 67.9087 15.936C67.3007 15.936 66.7567 16.08 66.2767 16.368C65.8127 16.64 65.4447 17.032 65.1727 17.544C64.9007 18.04 64.7647 18.64 64.7647 19.344V27H62.5327ZM81.0386 27.288C80.1106 27.288 79.2706 27.072 78.5186 26.64C77.7826 26.208 77.2066 25.608 76.7906 24.84C76.3906 24.056 76.1906 23.16 76.1906 22.152V14.064H78.4226V21.912C78.4226 22.552 78.5506 23.112 78.8066 23.592C79.0786 24.072 79.4466 24.448 79.9106 24.72C80.3906 24.992 80.9346 25.128 81.5426 25.128C82.1506 25.128 82.6866 24.992 83.1506 24.72C83.6306 24.448 83.9986 24.056 84.2546 23.544C84.5266 23.032 84.6626 22.424 84.6626 21.72V14.064H86.9186V27H84.7346V24.48L85.0946 24.696C84.7906 25.512 84.2706 26.152 83.5346 26.616C82.8146 27.064 81.9826 27.288 81.0386 27.288ZM90.3764 27V14.064H92.5604V16.584L92.2004 16.368C92.5204 15.552 93.0324 14.92 93.7364 14.472C94.4564 14.008 95.2964 13.776 96.2564 13.776C97.1844 13.776 98.0084 13.984 98.7284 14.4C99.4644 14.816 100.04 15.392 100.456 16.128C100.888 16.864 101.104 17.696 101.104 18.624V27H98.8484V19.344C98.8484 18.624 98.7204 18.016 98.4644 17.52C98.2084 17.024 97.8404 16.64 97.3604 16.368C96.8964 16.08 96.3604 15.936 95.7524 15.936C95.1444 15.936 94.6004 16.08 94.1204 16.368C93.6564 16.64 93.2884 17.032 93.0164 17.544C92.7444 18.04 92.6084 18.64 92.6084 19.344V27H90.3764ZM109.554 27.144C108.29 27.144 107.314 26.784 106.626 26.064C105.954 25.344 105.618 24.328 105.618 23.016V16.2H103.266V14.064H103.746C104.322 14.064 104.778 13.888 105.114 13.536C105.45 13.184 105.618 12.72 105.618 12.144V11.088H107.85V14.064H110.754V16.2H107.85V22.944C107.85 23.376 107.914 23.752 108.042 24.072C108.186 24.392 108.418 24.648 108.738 24.84C109.058 25.016 109.482 25.104 110.01 25.104C110.122 25.104 110.258 25.096 110.418 25.08C110.594 25.064 110.754 25.048 110.898 25.032V27C110.69 27.048 110.458 27.08 110.202 27.096C109.946 27.128 109.73 27.144 109.554 27.144ZM117.442 27.288C116.594 27.288 115.842 27.136 115.186 26.832C114.546 26.512 114.042 26.08 113.674 25.536C113.306 24.976 113.122 24.336 113.122 23.616C113.122 22.928 113.266 22.312 113.554 21.768C113.858 21.208 114.322 20.736 114.946 20.352C115.586 19.968 116.386 19.696 117.346 19.536L122.146 18.744V20.616L117.85 21.336C117.018 21.48 116.41 21.744 116.026 22.128C115.658 22.512 115.474 22.984 115.474 23.544C115.474 24.072 115.682 24.512 116.098 24.864C116.53 25.216 117.066 25.392 117.706 25.392C118.522 25.392 119.226 25.224 119.818 24.888C120.426 24.536 120.898 24.064 121.234 23.472C121.586 22.88 121.762 22.224 121.762 21.504V18.216C121.762 17.512 121.498 16.944 120.97 16.512C120.458 16.064 119.778 15.84 118.93 15.84C118.194 15.84 117.538 16.032 116.962 16.416C116.402 16.784 115.986 17.28 115.714 17.904L113.77 16.896C114.01 16.304 114.394 15.776 114.922 15.312C115.45 14.832 116.066 14.456 116.77 14.184C117.474 13.912 118.21 13.776 118.978 13.776C119.97 13.776 120.842 13.968 121.594 14.352C122.346 14.72 122.93 15.24 123.346 15.912C123.778 16.568 123.994 17.336 123.994 18.216V27H121.81V24.552L122.218 24.696C121.946 25.208 121.578 25.656 121.114 26.04C120.65 26.424 120.106 26.728 119.482 26.952C118.858 27.176 118.178 27.288 117.442 27.288Z" fill="white"/>
</svg>
