<svg width="36" height="36" viewBox="0 0 36 36" fill="none" xmlns="http://www.w3.org/2000/svg">
<path opacity="0.5" d="M8.60352 28.2503V28.0966C8.60352 26.6189 8.60352 25.2625 8.75214 24.1606C8.91443 22.946 9.29881 21.6613 10.3546 20.6072C11.4103 19.5498 12.695 19.1654 13.9079 19.0014C15.0115 18.8545 16.3679 18.8545 17.8473 18.8545H18.1514C19.6308 18.8545 20.9872 18.8545 22.0891 19.0031C23.3037 19.1654 24.5884 19.5498 25.6424 20.6055C26.6999 21.6613 27.0843 22.9459 27.2483 24.1589C27.3935 25.2471 27.3952 26.5779 27.3952 28.0317C31.7907 27.0921 35.0827 23.2278 35.0827 18.6017C35.0827 14.3821 32.3374 10.7912 28.5141 9.48428C27.9709 4.66508 23.8333 0.916992 18.8125 0.916992C13.421 0.916992 9.0511 5.23566 9.0511 10.564C9.0511 11.7427 9.26464 12.8702 9.65585 13.9157C9.18867 13.8249 8.71385 13.7791 8.23793 13.779C4.19431 13.7807 0.916016 17.0197 0.916016 21.0155C0.916016 25.0113 4.19431 28.2503 8.23793 28.2503H8.60352Z" fill="#E7B055"/>
<path fill-rule="evenodd" clip-rule="evenodd" d="M17.9993 21.417C14.7774 21.417 13.1682 21.417 12.1671 22.4181C11.166 23.4192 11.166 25.0284 11.166 28.2503C11.166 31.4722 11.166 33.0815 12.1671 34.0826C13.1682 35.0837 14.7774 35.0837 17.9993 35.0837C21.2213 35.0837 22.8305 35.0837 23.8316 34.0826C24.8327 33.0815 24.8327 31.4722 24.8327 28.2503C24.8327 25.0284 24.8327 23.4192 23.8316 22.4181C22.8305 21.417 21.2213 21.417 17.9993 21.417ZM21.0829 26.6855L18.804 24.4083C18.5904 24.1953 18.301 24.0756 17.9993 24.0756C17.6977 24.0756 17.4083 24.1953 17.1947 24.4083L14.9158 26.6855C14.8058 26.7903 14.7178 26.9161 14.6571 27.0554C14.5964 27.1947 14.5641 27.3448 14.5623 27.4967C14.5604 27.6487 14.589 27.7995 14.6463 27.9402C14.7036 28.081 14.7885 28.2089 14.8959 28.3163C15.0034 28.4238 15.1313 28.5087 15.272 28.566C15.4128 28.6233 15.5636 28.6518 15.7155 28.65C15.8675 28.6481 16.0176 28.6159 16.1569 28.5552C16.2962 28.4945 16.422 28.4065 16.5268 28.2965L16.8599 27.9633V31.2877C16.8599 31.5899 16.9799 31.8798 17.1936 32.0935C17.4073 32.3071 17.6971 32.4272 17.9993 32.4272C18.3016 32.4272 18.5914 32.3071 18.8051 32.0935C19.0188 31.8798 19.1388 31.5899 19.1388 31.2877V27.9633L19.4719 28.2965C19.6873 28.5015 19.9743 28.6143 20.2717 28.6107C20.569 28.6071 20.8532 28.4873 21.0635 28.277C21.2738 28.0668 21.3935 27.7826 21.3971 27.4852C21.4008 27.1878 21.288 26.9008 21.0829 26.6855Z" fill="#E7B055"/>
</svg>
