<svg width="31" height="34" viewBox="0 0 31 34" fill="none" xmlns="http://www.w3.org/2000/svg">
<path opacity="0.5" d="M0.75 14.3609C0.75 9.03085 0.75 6.36585 1.38 5.46919C2.00833 4.57419 4.51333 3.71585 9.525 2.00085L10.48 1.67419C13.0917 0.779186 14.3967 0.33252 15.75 0.33252C17.1017 0.33252 18.4083 0.779186 21.02 1.67419L21.975 2.00085C26.9867 3.71585 29.4917 4.57419 30.12 5.46919C30.75 6.36585 30.75 9.03252 30.75 14.3609V16.9842C30.75 26.3809 23.685 30.9425 19.2517 32.8775C18.05 33.4025 17.45 33.6659 15.75 33.6659C14.05 33.6659 13.45 33.4025 12.2483 32.8775C7.815 30.9409 0.75 26.3825 0.75 16.9842V14.3609Z" fill="#404F80"/>
<path fill-rule="evenodd" clip-rule="evenodd" d="M14 11.0003C14.5049 10.6217 15.1189 10.417 15.75 10.417C16.3811 10.417 16.9951 10.6217 17.5 11.0003L23.1667 15.2503C23.298 15.3488 23.4086 15.4722 23.4923 15.6135C23.5759 15.7547 23.6309 15.911 23.6541 16.0735C23.6773 16.2361 23.6683 16.4015 23.6276 16.5606C23.5868 16.7196 23.5152 16.869 23.4167 17.0003C23.3182 17.1316 23.1948 17.2423 23.0535 17.3259C22.9123 17.4096 22.7559 17.4645 22.5934 17.4878C22.4309 17.511 22.2655 17.502 22.1064 17.4612C21.9474 17.4205 21.798 17.3488 21.6667 17.2503L16 13.0003C15.9279 12.9462 15.8402 12.917 15.75 12.917C15.6598 12.917 15.5721 12.9462 15.5 13.0003L9.83333 17.2503C9.70201 17.3488 9.55258 17.4205 9.39356 17.4612C9.23454 17.502 9.06906 17.511 8.90656 17.4878C8.74405 17.4645 8.58772 17.4096 8.44647 17.3259C8.30522 17.2423 8.18183 17.1316 8.08333 17.0003C7.98484 16.869 7.91318 16.7196 7.87244 16.5606C7.8317 16.4015 7.82268 16.2361 7.8459 16.0735C7.86911 15.911 7.92411 15.7547 8.00774 15.6135C8.09138 15.4722 8.20201 15.3488 8.33333 15.2503L14 11.0003ZM15 16.917C15.2164 16.7547 15.4795 16.667 15.75 16.667C16.0205 16.667 16.2836 16.7547 16.5 16.917L19.8333 19.417C20.0985 19.6159 20.2739 19.912 20.3208 20.2402C20.3677 20.5684 20.2822 20.9018 20.0833 21.167C19.8844 21.4322 19.5883 21.6075 19.2601 21.6544C18.9319 21.7013 18.5986 21.6159 18.3333 21.417L15.75 19.4803L13.1667 21.417C12.9015 21.6159 12.5681 21.7013 12.2399 21.6544C11.9117 21.6075 11.6156 21.4322 11.4167 21.167C11.2178 20.9018 11.1323 20.5684 11.1792 20.2402C11.2261 19.912 11.4015 19.6159 11.6667 19.417L15 16.917Z" fill="#404F80"/>
</svg>
