<svg width="34" height="33" viewBox="0 0 34 33" fill="none" xmlns="http://www.w3.org/2000/svg">
<g id="Group">
<path id="Vector" opacity="0.5" d="M7.74677 3.66855C8.4844 3.17583 9.26214 2.74599 10.0718 2.38355C12.3584 1.35855 13.5018 0.84688 15.0218 1.83355C16.5434 2.81688 16.5434 4.43355 16.5434 7.66688V10.1669C16.5434 13.3102 16.5434 14.8802 17.5201 15.8569C18.4968 16.8335 20.0668 16.8335 23.2101 16.8335H25.7101C28.9434 16.8335 30.5601 16.8335 31.5434 18.3535C32.5301 19.8752 32.0184 21.0185 30.9934 23.3035C29.5284 26.5767 26.9953 29.2555 23.8091 30.9011C20.6228 32.5468 16.9723 33.0618 13.4551 32.3619C10.3839 31.7509 7.56276 30.243 5.3485 28.0288C3.13424 25.8145 1.62627 22.9934 1.01527 19.9222C0.404269 16.851 0.71768 13.6675 1.91587 10.7744C3.11406 7.88132 5.14322 5.40846 7.74677 3.66855Z" fill="#E7B055"/>
<path id="Vector_2" d="M33.1209 7.7817C32.4483 6.07928 31.4333 4.53304 30.139 3.23868C28.8446 1.94431 27.2984 0.929383 25.5959 0.256704C23.0259 -0.754963 20.7109 1.57337 20.7109 4.33337V11C20.7109 11.4421 20.8865 11.866 21.1991 12.1785C21.5117 12.4911 21.9356 12.6667 22.3776 12.6667H29.0443C31.8059 12.6667 34.1326 10.35 33.1209 7.7817Z" fill="#E7B055"/>
</g>
</svg>
