<svg width="35" height="35" viewBox="0 0 35 35" fill="none" xmlns="http://www.w3.org/2000/svg">
<path opacity="0.5" d="M17.5007 34.1663C26.7054 34.1663 34.1673 26.7044 34.1673 17.4997C34.1673 8.29493 26.7054 0.833008 17.5007 0.833008C8.2959 0.833008 0.833984 8.29493 0.833984 17.4997C0.833984 26.7044 8.2959 34.1663 17.5007 34.1663Z" fill="#E7B055"/>
<path d="M9.79608 18.426L8.85942 19.2544C8.97101 19.3802 9.10686 19.4823 9.25883 19.5544C9.41079 19.6265 9.57575 19.6672 9.74382 19.674C9.91188 19.6809 10.0796 19.6537 10.2369 19.5942C10.3943 19.5347 10.538 19.4441 10.6594 19.3277L9.79608 18.426ZM13.3644 16.7344C13.5927 16.5025 13.7215 16.1908 13.7237 15.8655C13.7258 15.5402 13.6009 15.2268 13.3757 14.992C13.1505 14.7573 12.8426 14.6195 12.5174 14.6082C12.1923 14.5968 11.8755 14.7126 11.6344 14.931L13.3644 16.7344ZM8.43442 15.0044C8.32771 14.8745 8.19593 14.7676 8.04694 14.6898C7.89795 14.6121 7.73482 14.5652 7.5673 14.552C7.39978 14.5387 7.2313 14.5594 7.07195 14.6127C6.91259 14.6661 6.76563 14.751 6.63985 14.8624C6.51407 14.9739 6.41204 15.1095 6.33988 15.2613C6.26771 15.4131 6.22689 15.5778 6.21985 15.7457C6.21281 15.9136 6.23969 16.0812 6.29889 16.2385C6.3581 16.3957 6.44841 16.5395 6.56442 16.661L8.43442 15.0044ZM22.3844 12.5144C22.4958 12.635 22.6299 12.7324 22.779 12.8012C22.928 12.87 23.0892 12.9088 23.2533 12.9153C23.4173 12.9218 23.581 12.8959 23.7351 12.8391C23.8891 12.7823 24.0305 12.6958 24.1511 12.5844C24.2717 12.473 24.3692 12.3389 24.4379 12.1898C24.5067 12.0407 24.5455 11.8796 24.552 11.7155C24.5585 11.5515 24.5326 11.3878 24.4758 11.2337C24.4191 11.0797 24.3325 10.9383 24.2211 10.8177L22.3861 12.5144H22.3844ZM17.5744 7.91603C12.5978 7.91603 8.54775 11.921 8.54775 16.8827H11.0478C11.0478 13.321 13.9594 10.416 17.5744 10.416V7.91603ZM8.54775 16.8827V18.426H11.0478V16.8827H8.54775ZM10.6628 19.3277L13.3661 16.7344L11.6361 14.931L8.93275 17.5227L10.6628 19.3277ZM10.7328 17.596L8.43442 15.0044L6.56442 16.661L8.85942 19.2544L10.7328 17.596ZM24.2211 10.8177C23.3734 9.90064 22.3465 9.16931 21.2019 8.66987C20.0573 8.17044 18.8216 7.91376 17.5728 7.91603V10.416C18.477 10.4138 19.3718 10.5993 20.2006 10.9608C21.0294 11.3223 21.7742 11.8519 22.3878 12.516L24.2211 10.816V10.8177ZM25.1978 16.5727L26.1311 15.7427C26.0194 15.617 25.8834 15.5151 25.7314 15.4431C25.5794 15.3711 25.4144 15.3306 25.2463 15.3239C25.0783 15.3172 24.9106 15.3445 24.7533 15.4041C24.5961 15.4638 24.4524 15.5546 24.3311 15.671L25.1978 16.5727ZM21.6328 18.2627C21.3936 18.4926 21.2556 18.808 21.249 19.1396C21.2425 19.4712 21.3679 19.7919 21.5978 20.031C21.8276 20.2702 22.143 20.4082 22.4747 20.4148C22.8063 20.4213 23.1269 20.2959 23.3661 20.066L21.6328 18.2627ZM26.5661 19.996C26.7891 20.2335 27.096 20.3746 27.4214 20.3891C27.7469 20.4037 28.0651 20.2906 28.3084 20.074C28.5518 19.8574 28.7009 19.5544 28.7241 19.2295C28.7474 18.9045 28.6428 18.5834 28.4328 18.3344L26.5661 19.9944V19.996ZM12.5778 22.5077C12.3496 22.2715 12.0378 22.1346 11.7095 22.1265C11.3813 22.1184 11.0631 22.2398 10.8236 22.4644C10.5841 22.689 10.4426 22.9988 10.4296 23.3269C10.4167 23.6549 10.5334 23.9749 10.7544 24.2177L12.5778 22.5077ZM17.3911 27.0827C22.3794 27.0827 26.4478 23.0827 26.4478 18.116H23.9478C23.9478 21.6744 21.0261 24.5827 17.3911 24.5827V27.0827ZM26.4478 18.116V16.5727H23.9478V18.116H26.4478ZM24.3311 15.671L21.6328 18.2627L23.3661 20.066L26.0628 17.4744L24.3311 15.671ZM24.2644 17.4044L26.5644 19.9944L28.4344 18.3344L26.1311 15.7427L24.2644 17.4044ZM10.7528 24.216C11.6038 25.1226 12.632 25.8447 13.7736 26.3376C14.9153 26.8304 16.146 27.0835 17.3894 27.081V24.581C15.4844 24.581 13.7728 23.781 12.5761 22.506L10.7544 24.2177L10.7528 24.216Z" fill="#E7B055"/>
</svg>
