<svg width="35" height="34" viewBox="0 0 35 34" fill="none" xmlns="http://www.w3.org/2000/svg">
<path opacity="0.5" d="M17.4998 33.666C26.7045 33.666 34.1665 26.2041 34.1665 16.9993C34.1665 7.79456 26.7045 0.332642 17.4998 0.332642C8.29505 0.332642 0.83313 7.79456 0.83313 16.9993C0.83313 26.2041 8.29505 33.666 17.4998 33.666Z" fill="#E7B055"/>
<path d="M9.79621 17.926L8.85954 18.7544C8.97114 18.8802 9.10698 18.9823 9.25895 19.0544C9.41091 19.1265 9.57587 19.1672 9.74394 19.174C9.912 19.1809 10.0797 19.1537 10.2371 19.0942C10.3944 19.0347 10.5381 18.9441 10.6595 18.8277L9.79621 17.926ZM13.3645 16.2344C13.5928 16.0025 13.7217 15.6908 13.7238 15.3655C13.7259 15.0402 13.6011 14.7268 13.3758 14.492C13.1506 14.2573 12.8427 14.1195 12.5176 14.1082C12.1924 14.0968 11.8756 14.2126 11.6345 14.431L13.3645 16.2344ZM8.43454 14.5044C8.32784 14.3745 8.19605 14.2676 8.04706 14.1898C7.89808 14.1121 7.73494 14.0652 7.56742 14.052C7.3999 14.0387 7.23142 14.0594 7.07207 14.1127C6.91272 14.1661 6.76576 14.251 6.63997 14.3624C6.51419 14.4739 6.41216 14.6095 6.34 14.7613C6.26783 14.9131 6.22701 15.0778 6.21997 15.2457C6.21293 15.4136 6.23981 15.5812 6.29902 15.7385C6.35822 15.8957 6.44853 16.0395 6.56454 16.161L8.43454 14.5044ZM22.3845 12.0144C22.4959 12.135 22.63 12.2324 22.7791 12.3012C22.9282 12.37 23.0893 12.4088 23.2534 12.4153C23.4174 12.4218 23.5812 12.3959 23.7352 12.3391C23.8892 12.2823 24.0306 12.1958 24.1512 12.0844C24.2718 11.973 24.3693 11.8389 24.4381 11.6898C24.5068 11.5407 24.5456 11.3796 24.5521 11.2155C24.5586 11.0515 24.5327 10.8878 24.4759 10.7337C24.4192 10.5797 24.3326 10.4383 24.2212 10.3177L22.3862 12.0144H22.3845ZM17.5745 7.41603C12.5979 7.41603 8.54787 11.421 8.54787 16.3827H11.0479C11.0479 12.821 13.9595 9.91603 17.5745 9.91603V7.41603ZM8.54787 16.3827V17.926H11.0479V16.3827H8.54787ZM10.6629 18.8277L13.3662 16.2344L11.6362 14.431L8.93287 17.0227L10.6629 18.8277ZM10.7329 17.096L8.43454 14.5044L6.56454 16.161L8.85954 18.7544L10.7329 17.096ZM24.2212 10.3177C23.3735 9.40064 22.3466 8.66931 21.202 8.16987C20.0574 7.67044 18.8217 7.41376 17.5729 7.41603V9.91603C18.4771 9.91381 19.3719 10.0993 20.2007 10.4608C21.0295 10.8223 21.7743 11.3519 22.3879 12.016L24.2212 10.316V10.3177ZM25.1979 16.0727L26.1312 15.2427C26.0195 15.117 25.8836 15.0151 25.7315 14.9431C25.5795 14.8711 25.4145 14.8306 25.2465 14.8239C25.0784 14.8172 24.9107 14.8445 24.7534 14.9041C24.5962 14.9638 24.4526 15.0546 24.3312 15.171L25.1979 16.0727ZM21.6329 17.7627C21.3937 17.9926 21.2557 18.308 21.2491 18.6396C21.2426 18.9712 21.368 19.2919 21.5979 19.531C21.8277 19.7702 22.1432 19.9082 22.4748 19.9148C22.8064 19.9213 23.1271 19.7959 23.3662 19.566L21.6329 17.7627ZM26.5662 19.496C26.7892 19.7335 27.0961 19.8746 27.4215 19.8891C27.747 19.9037 28.0652 19.7906 28.3086 19.574C28.5519 19.3574 28.701 19.0544 28.7243 18.7295C28.7475 18.4045 28.6429 18.0834 28.4329 17.8344L26.5662 19.4944V19.496ZM12.5779 22.0077C12.3498 21.7715 12.0379 21.6346 11.7097 21.6265C11.3814 21.6184 11.0632 21.7398 10.8237 21.9644C10.5842 22.189 10.4427 22.4988 10.4298 22.8269C10.4168 23.1549 10.5335 23.4749 10.7545 23.7177L12.5779 22.0077ZM17.3912 26.5827C22.3795 26.5827 26.4479 22.5827 26.4479 17.616H23.9479C23.9479 21.1744 21.0262 24.0827 17.3912 24.0827V26.5827ZM26.4479 17.616V16.0727H23.9479V17.616H26.4479ZM24.3312 15.171L21.6329 17.7627L23.3662 19.566L26.0629 16.9744L24.3312 15.171ZM24.2645 16.9044L26.5645 19.4944L28.4345 17.8344L26.1312 15.2427L24.2645 16.9044ZM10.7529 23.716C11.6039 24.6226 12.6321 25.3447 13.7738 25.8376C14.9154 26.3304 16.1461 26.5835 17.3895 26.581V24.081C15.4845 24.081 13.7729 23.281 12.5762 22.006L10.7545 23.7177L10.7529 23.716Z" fill="#E7B055"/>
</svg>
