<svg width="31" height="35" viewBox="0 0 31 35" fill="none" xmlns="http://www.w3.org/2000/svg">
<g id="Group">
<path id="Vector" opacity="0.5" d="M0.376953 14.1663C0.376953 7.88134 0.376953 4.73801 2.33029 2.78634C4.28195 0.833008 7.42529 0.833008 13.7103 0.833008H17.0436C23.3286 0.833008 26.472 0.833008 28.4236 2.78634C30.377 4.73801 30.377 7.88134 30.377 14.1663V20.833C30.377 27.118 30.377 30.2613 28.4236 32.213C26.472 34.1663 23.3286 34.1663 17.0436 34.1663H13.7103C7.42529 34.1663 4.28195 34.1663 2.33029 32.213C0.376953 30.2613 0.376953 27.118 0.376953 20.833V14.1663Z" fill="#E7B055"/>
<path id="Vector_2" fill-rule="evenodd" clip-rule="evenodd" d="M7.46094 17.4997C7.46094 17.1682 7.59263 16.8502 7.82705 16.6158C8.06147 16.3814 8.37942 16.2497 8.71094 16.2497H22.0443C22.3758 16.2497 22.6937 16.3814 22.9282 16.6158C23.1626 16.8502 23.2943 17.1682 23.2943 17.4997C23.2943 17.8312 23.1626 18.1491 22.9282 18.3836C22.6937 18.618 22.3758 18.7497 22.0443 18.7497H8.71094C8.37942 18.7497 8.06147 18.618 7.82705 18.3836C7.59263 18.1491 7.46094 17.8312 7.46094 17.4997ZM7.46094 10.833C7.46094 10.5015 7.59263 10.1835 7.82705 9.94912C8.06147 9.7147 8.37942 9.58301 8.71094 9.58301H22.0443C22.3758 9.58301 22.6937 9.7147 22.9282 9.94912C23.1626 10.1835 23.2943 10.5015 23.2943 10.833C23.2943 11.1645 23.1626 11.4825 22.9282 11.7169C22.6937 11.9513 22.3758 12.083 22.0443 12.083H8.71094C8.37942 12.083 8.06147 11.9513 7.82705 11.7169C7.59263 11.4825 7.46094 11.1645 7.46094 10.833ZM7.46094 24.1663C7.46094 23.8348 7.59263 23.5169 7.82705 23.2825C8.06147 23.048 8.37942 22.9163 8.71094 22.9163H17.0443C17.3758 22.9163 17.6937 23.048 17.9282 23.2825C18.1626 23.5169 18.2943 23.8348 18.2943 24.1663C18.2943 24.4979 18.1626 24.8158 17.9282 25.0502C17.6937 25.2846 17.3758 25.4163 17.0443 25.4163H8.71094C8.37942 25.4163 8.06147 25.2846 7.82705 25.0502C7.59263 24.8158 7.46094 24.4979 7.46094 24.1663Z" fill="#E7B055"/>
</g>
</svg>
